<svg width="512" height="512" viewBox="0 0 512 512" fill="none" xmlns="http://www.w3.org/2000/svg">
<g clip-path="url(#clip0_272_2)">
<path d="M0 256C0 306.632 15.0141 356.127 43.1438 398.226C71.2734 440.325 111.255 473.137 158.033 492.513C204.811 511.889 256.284 516.959 305.943 507.081C355.602 497.203 401.217 472.822 437.019 437.019C472.822 401.217 497.203 355.602 507.081 305.943C516.959 256.284 511.889 204.811 492.513 158.033C473.137 111.255 440.325 71.2734 398.226 43.1438C356.127 15.0141 306.632 0 256 0C188.127 0.0734097 123.055 27.0683 75.0618 75.0618C27.0683 123.055 0.0734097 188.127 0 256ZM341.333 256C341.349 271.616 335.642 286.697 325.291 298.389C319.083 305.365 313.045 311.979 308.715 316.309L248.469 377.6C246.54 379.731 244.201 381.449 241.591 382.653C238.981 383.857 236.155 384.521 233.282 384.606C230.409 384.69 227.549 384.193 224.873 383.145C222.197 382.096 219.76 380.518 217.71 378.505C215.659 376.491 214.036 374.084 212.938 371.428C211.841 368.771 211.291 365.921 211.323 363.047C211.355 360.173 211.967 357.335 213.122 354.704C214.278 352.072 215.953 349.701 218.048 347.733L278.4 286.293C282.389 282.283 287.808 276.309 293.333 270.101C296.771 266.204 298.668 261.186 298.668 255.989C298.668 250.793 296.771 245.775 293.333 241.877C287.829 235.691 282.411 229.717 278.549 225.835L218.048 164.267C215.953 162.299 214.278 159.928 213.122 157.296C211.967 154.665 211.355 151.827 211.323 148.953C211.291 146.079 211.841 143.229 212.938 140.572C214.036 137.916 215.659 135.509 217.71 133.495C219.76 131.482 222.197 129.904 224.873 128.855C227.549 127.807 230.409 127.31 233.282 127.394C236.155 127.479 238.981 128.143 241.591 129.347C244.201 130.551 246.54 132.269 248.469 134.4L308.821 195.819C313.088 200.085 319.061 206.635 325.227 213.589C335.611 225.275 341.343 240.367 341.333 256Z" fill="white"/>
</g>
<defs>
<clipPath id="clip0_272_2">
<rect width="512" height="512" fill="white"/>
</clipPath>
</defs>
</svg>
