<svg width="25" height="25" viewBox="0 0 25 25" fill="none" xmlns="http://www.w3.org/2000/svg">
<path d="M18.6678 1.5677C18.6674 1.98196 18.5026 2.37912 18.2094 2.67186L10.2178 10.6635C9.97588 10.9054 9.784 11.1925 9.65308 11.5085C9.52217 11.8245 9.45479 12.1632 9.45479 12.5052C9.45479 12.8472 9.52217 13.1859 9.65308 13.5019C9.784 13.8179 9.97588 14.105 10.2178 14.3469L18.199 22.3281C18.4836 22.6228 18.6411 23.0175 18.6376 23.4272C18.634 23.8369 18.4697 24.2288 18.18 24.5185C17.8903 24.8082 17.4984 24.9725 17.0887 24.976C16.679 24.9796 16.2843 24.8221 15.9896 24.5375L8.0084 16.5625C6.93524 15.4872 6.33252 14.0301 6.33252 12.5109C6.33252 10.9918 6.93524 9.53464 8.0084 8.45936L16.0001 0.462487C16.2186 0.243824 16.4971 0.0948966 16.8003 0.0345486C17.1034 -0.0257995 17.4177 0.0051444 17.7033 0.123465C17.9889 0.241785 18.233 0.442164 18.4047 0.699246C18.5764 0.956328 18.6679 1.25856 18.6678 1.5677Z" fill="#C9C9C9" fill-opacity="0.6"/>
</svg>
