<svg width="41" height="40" viewBox="0 0 41 40" fill="none" xmlns="http://www.w3.org/2000/svg">
<g clip-path="url(#clip0_15_78)">
<path d="M7.11571 0H12.1592C15.8731 0 18.8838 2.98477 18.8838 6.66664V11.6666C18.8838 15.3485 15.8731 18.3333 12.1592 18.3333H7.11571C3.40183 18.3334 0.391113 15.3486 0.391113 11.6666V6.66664C0.391113 2.98477 3.40183 0 7.11571 0Z" fill="white"/>
<path d="M28.9707 0H34.0142C37.728 0 40.7387 2.98477 40.7387 6.66664V11.6666C40.7387 15.3485 37.728 18.3333 34.0142 18.3333H28.9707C25.2568 18.3333 22.2461 15.3485 22.2461 11.6666V6.66664C22.246 2.98477 25.2567 0 28.9707 0Z" fill="white"/>
<path d="M7.11571 21.6666H12.1592C15.8731 21.6666 18.8838 24.6514 18.8838 28.3333V33.3333C18.8838 37.0151 15.8731 39.9999 12.1592 39.9999H7.11571C3.40183 40 0.391113 37.0152 0.391113 33.3333V28.3333C0.391113 24.6514 3.40183 21.6666 7.11571 21.6666Z" fill="white"/>
<path d="M28.9707 21.6666H34.0142C37.728 21.6666 40.7387 24.6514 40.7387 28.3333V33.3333C40.7387 37.0152 37.728 40 34.0142 40H28.9707C25.2568 40 22.2461 37.0152 22.2461 33.3333V28.3333C22.246 24.6514 25.2567 21.6666 28.9707 21.6666Z" fill="white"/>
</g>
<defs>
<clipPath id="clip0_15_78">
<rect width="40.3477" height="40" fill="white" transform="translate(0.391113)"/>
</clipPath>
</defs>
</svg>
