<svg width="512" height="512" viewBox="0 0 512 512" fill="none" xmlns="http://www.w3.org/2000/svg">
<g clip-path="url(#clip0_407_12)">
<path d="M448 128H320C308.203 128 298.667 137.536 298.667 149.333C298.667 161.131 308.203 170.667 320 170.667H439.168L299.179 310.656C287.147 322.688 267.563 322.688 255.509 310.656L201.344 256.491C172.672 227.819 126.016 227.819 97.344 256.491L6.25063 347.584C-2.0907 355.925 -2.0907 369.408 6.25063 377.749C10.4106 381.909 15.872 384 21.3333 384C26.7946 384 32.256 381.909 36.416 377.749L127.509 286.656C139.179 274.987 159.509 274.987 171.179 286.656L225.344 340.821C254.016 369.493 300.672 369.493 329.344 340.821L469.355 200.832V320C469.355 331.797 478.891 341.333 490.688 341.333C502.485 341.333 512.021 331.797 512.021 320V192C512.021 156.715 483.285 128 448 128Z" fill="#50CD89"/>
</g>
<defs>
<clipPath id="clip0_407_12">
<rect width="512" height="512" fill="white"/>
</clipPath>
</defs>
</svg>
