<svg width="512" height="512" viewBox="0 0 512 512" fill="none" xmlns="http://www.w3.org/2000/svg">
<g clip-path="url(#clip0_406_4)">
<path d="M512 202.667V309.333C512 350.507 478.507 384 437.333 384H330.667C313.003 384 298.667 369.664 298.667 352C298.667 334.336 313.003 320 330.667 320H402.752L277.333 194.581L189.461 282.453C167.339 304.576 131.328 304.576 109.205 282.453L9.36526 182.635C-3.13608 170.133 -3.13608 149.888 9.36526 137.387C21.8666 124.885 42.1119 124.885 54.6133 137.387L149.312 232.085L236.352 145.045C258.944 122.453 295.68 122.453 318.272 145.045L447.979 274.752V202.667C447.979 185.003 462.315 170.667 479.979 170.667C497.643 170.667 512 185.003 512 202.667Z" fill="#F1416C"/>
</g>
<defs>
<clipPath id="clip0_406_4">
<rect width="512" height="512" fill="white"/>
</clipPath>
</defs>
</svg>
