<svg width="25" height="25" viewBox="0 0 25 25" fill="none" xmlns="http://www.w3.org/2000/svg">
<g clip-path="url(#clip0_303_151)">
<path d="M5.20833 18.7499C4.63229 18.7499 4.16667 18.2833 4.16667 17.7083V7.29159C4.16667 6.71659 4.63229 6.24992 5.20833 6.24992C5.78437 6.24992 6.25 6.71659 6.25 7.29159V17.7083C6.25 18.2833 5.78437 18.7499 5.20833 18.7499ZM10.4167 17.7083V7.29159C10.4167 6.71659 9.95104 6.24992 9.375 6.24992C8.79896 6.24992 8.33333 6.71659 8.33333 7.29159V17.7083C8.33333 18.2833 8.79896 18.7499 9.375 18.7499C9.95104 18.7499 10.4167 18.2833 10.4167 17.7083ZM20.8333 17.7083V7.29159C20.8333 6.71659 20.3677 6.24992 19.7917 6.24992C19.2156 6.24992 18.75 6.71659 18.75 7.29159V17.7083C18.75 18.2833 19.2156 18.7499 19.7917 18.7499C20.3677 18.7499 20.8333 18.2833 20.8333 17.7083ZM14.5833 17.1874V7.81242C14.5833 6.94888 13.8833 6.24992 13.0208 6.24992C12.1583 6.24992 11.4583 6.94888 11.4583 7.81242V17.1874C11.4583 18.051 12.1583 18.7499 13.0208 18.7499C13.8833 18.7499 14.5833 18.051 14.5833 17.1874ZM7.29167 21.8749C7.29167 21.2999 6.82604 20.8333 6.25 20.8333H4.16667C3.01771 20.8333 2.08333 19.8989 2.08333 18.7499V16.6666C2.08333 16.0916 1.61771 15.6249 1.04167 15.6249C0.465625 15.6249 0 16.0916 0 16.6666V18.7499C0 21.0478 1.86875 22.9166 4.16667 22.9166H6.25C6.82604 22.9166 7.29167 22.4499 7.29167 21.8749ZM25 18.7499V16.6666C25 16.0916 24.5344 15.6249 23.9583 15.6249C23.3823 15.6249 22.9167 16.0916 22.9167 16.6666V18.7499C22.9167 19.8989 21.9823 20.8333 20.8333 20.8333H18.75C18.174 20.8333 17.7083 21.2999 17.7083 21.8749C17.7083 22.4499 18.174 22.9166 18.75 22.9166H20.8333C23.1312 22.9166 25 21.0478 25 18.7499ZM25 8.33325V6.24992C25 3.952 23.1312 2.08325 20.8333 2.08325H18.75C18.174 2.08325 17.7083 2.54992 17.7083 3.12492C17.7083 3.69992 18.174 4.16659 18.75 4.16659H20.8333C21.9823 4.16659 22.9167 5.10096 22.9167 6.24992V8.33325C22.9167 8.90825 23.3823 9.37492 23.9583 9.37492C24.5344 9.37492 25 8.90825 25 8.33325ZM2.08333 8.33325V6.24992C2.08333 5.10096 3.01771 4.16659 4.16667 4.16659H6.25C6.82604 4.16659 7.29167 3.69992 7.29167 3.12492C7.29167 2.54992 6.82604 2.08325 6.25 2.08325H4.16667C1.86875 2.08325 0 3.952 0 6.24992V8.33325C0 8.90825 0.465625 9.37492 1.04167 9.37492C1.61771 9.37492 2.08333 8.90825 2.08333 8.33325ZM16.1458 18.7499C15.8583 18.7499 15.625 18.5166 15.625 18.2291V6.77075C15.625 6.48325 15.8583 6.24992 16.1458 6.24992C16.4333 6.24992 16.6667 6.48325 16.6667 6.77075V18.2291C16.6667 18.5166 16.4333 18.7499 16.1458 18.7499Z" fill="#505765"/>
</g>
<defs>
<clipPath id="clip0_303_151">
<rect width="25" height="25" fill="white"/>
</clipPath>
</defs>
</svg>
