<svg width="512" height="512" viewBox="0 0 512 512" fill="none" xmlns="http://www.w3.org/2000/svg">
<g clip-path="url(#clip0_402_2)">
<path d="M256 128C239.026 128 222.747 134.743 210.745 146.745C198.743 158.747 192 175.026 192 192V448C192 464.974 198.743 481.253 210.745 493.255C222.747 505.257 239.026 512 256 512C272.974 512 289.253 505.257 301.255 493.255C313.257 481.253 320 464.974 320 448V192C320 175.026 313.257 158.747 301.255 146.745C289.253 134.743 272.974 128 256 128Z" fill="#505765"/>
<path d="M448 0C431.026 0 414.747 6.74284 402.745 18.7452C390.743 30.7475 384 47.0261 384 64V448C384 464.974 390.743 481.253 402.745 493.255C414.747 505.257 431.026 512 448 512C464.974 512 481.253 505.257 493.255 493.255C505.257 481.253 512 464.974 512 448V64C512 47.0261 505.257 30.7475 493.255 18.7452C481.253 6.74284 464.974 0 448 0Z" fill="#505765"/>
<path d="M64 256C47.0261 256 30.7475 262.743 18.7452 274.745C6.74284 286.747 0 303.026 0 320L0 448C0 464.974 6.74284 481.253 18.7452 493.255C30.7475 505.257 47.0261 512 64 512C80.9739 512 97.2525 505.257 109.255 493.255C121.257 481.253 128 464.974 128 448V320C128 303.026 121.257 286.747 109.255 274.745C97.2525 262.743 80.9739 256 64 256Z" fill="#505765"/>
</g>
<defs>
<clipPath id="clip0_402_2">
<rect width="512" height="512" fill="white"/>
</clipPath>
</defs>
</svg>
