<svg width="35" height="35" viewBox="0 0 35 35" fill="none" xmlns="http://www.w3.org/2000/svg">
<g clip-path="url(#clip0_28_111)">
<path d="M27.704 23.5842L32.0805 21.63L32.0761 25.1694C32.0732 28.4842 29.9586 31.414 26.8145 32.4625L20.7974 34.4677C19.7328 34.8235 18.6128 35 17.4928 35C16.3728 35 15.2542 34.8221 14.1897 34.4677L8.17841 32.464C5.02695 31.414 2.91383 28.4783 2.91674 25.1592V21.6315L7.29174 23.5915V25.1606C7.29174 26.5942 8.2032 27.86 9.56237 28.3135L15.3067 30.2283L15.3097 25.1679C16.1453 24.8237 16.9051 24.3017 17.5001 23.6133C18.0965 24.3031 18.852 24.8237 19.6847 25.1723L19.6817 30.2269L25.432 28.3121C26.7882 27.86 27.7011 26.5956 27.7026 25.165L27.7055 23.5827L27.704 23.5842ZM29.7836 10.3746L17.5001 14.9902L5.15966 10.4052C3.59487 9.82333 1.84778 10.5569 1.1682 12.0808L0.417159 13.7608C-0.540966 15.3577 0.226117 17.4315 1.99216 18.0192L12.1582 22.575C12.4615 22.6756 12.7736 22.7252 13.0799 22.7252C14.0832 22.7252 15.0428 22.206 15.5809 21.3092L17.4855 17.7392L19.4192 21.3092C19.9574 22.206 20.9184 22.7252 21.9203 22.7252C22.228 22.7252 22.5386 22.6771 22.842 22.575L33.008 18.0192C34.774 17.43 35.5411 15.3577 34.583 13.7608L33.7663 12.0035C33.0692 10.5015 31.3324 9.79125 29.7822 10.3731L29.7836 10.3746ZM9.97216 9.21083L16.8832 1.7252C17.0917 1.51666 17.3192 1.3475 17.5438 1.17395L17.2245 0.854579C16.0884 -0.281462 14.2363 -0.281462 13.1003 0.854579L7.78174 6.17166C7.4332 6.5202 7.28299 7.02333 7.38653 7.50604C7.49008 7.98875 7.82987 8.38687 8.2907 8.56479L9.97362 9.21083H9.97216ZM26.2209 6.6602L23.1686 3.6852C22.0311 2.5477 20.1805 2.54916 19.0255 3.70416L12.9647 10.2696L17.223 11.8796C17.3834 11.9379 17.554 11.9685 17.7232 11.9685C17.8967 11.9685 18.0703 11.9379 18.2365 11.8767L25.7149 9.07229C26.1815 8.89729 26.5272 8.49479 26.6292 8.00625C26.7313 7.5177 26.5782 7.0102 26.2209 6.66312V6.6602Z" fill="#090D3E"/>
</g>
<defs>
<clipPath id="clip0_28_111">
<rect width="35" height="35" fill="white"/>
</clipPath>
</defs>
</svg>
