<svg width="35" height="35" viewBox="0 0 35 35" fill="none" xmlns="http://www.w3.org/2000/svg">
<g clip-path="url(#clip0_32_6)">
<path d="M16.0417 18.9583H4.375C1.95854 18.9583 0 20.9169 0 23.3333V35H16.0417V18.9583ZM5.10417 26.25V23.3333H10.9375V26.25H5.10417ZM30.625 18.9583H18.9583V35H35V23.3333C35 20.9169 33.0415 18.9583 30.625 18.9583ZM29.8958 26.25H24.0625V23.3333H29.8958V26.25ZM21.875 0H13.125C10.7129 0 8.75 1.96292 8.75 4.375V16.0417H26.25V4.375C26.25 1.96292 24.2871 0 21.875 0ZM20.4167 7.29167H14.5833V4.375H20.4167V7.29167Z" fill="black"/>
</g>
<defs>
<clipPath id="clip0_32_6">
<rect width="35" height="35" fill="white"/>
</clipPath>
</defs>
</svg>
