<svg width="512" height="512" viewBox="0 0 512 512" fill="none" xmlns="http://www.w3.org/2000/svg">
<g clip-path="url(#clip0_204_6)">
<path d="M123.969 161.862L78.7252 175.125C48.9958 183.852 24.3333 204.728 10.8149 232.608C-2.47965 260.109 -3.5646 291.939 7.82588 320.282C7.97825 320.675 8.17458 321.046 8.32797 321.439L45.8494 315.308C81.2152 306.097 113.554 287.792 139.653 262.211C148.268 253.778 162.088 253.924 170.522 262.538C178.955 271.153 178.809 284.973 170.195 293.407C138.072 324.762 98.2176 347.049 54.6844 358.001L29.1169 362.233C43.8288 386.142 62.0685 407.692 83.2184 426.152L128.004 409.529L158.545 394.258C190.03 378.436 216.984 354.883 236.883 325.803L248.205 309.202C254.715 299.064 268.21 296.122 278.349 302.631C288.486 309.14 291.428 322.635 284.92 332.774C284.704 333.11 284.478 333.441 284.244 333.765L272.943 350.366C248.872 385.591 216.239 414.117 178.114 433.264L144.3 450.127L125.91 456.933C170.229 482.772 220.637 496.327 271.939 496.2H292.096C296.607 496.197 301.007 494.812 304.705 492.23C350.906 460.829 389.167 419.109 416.464 370.371L178.855 137.079C161.518 147.316 143.113 155.626 123.969 161.862Z" fill="white"/>
<path d="M505.534 22.2462C496.911 13.6535 482.962 13.6535 474.339 22.2462L370.412 126.173L363.431 119.345C325.436 82.2346 266.258 77.8252 223.183 108.895C221.175 110.335 219.19 111.534 217.162 112.931L435.9 327.678C442.861 308.831 447.975 289.353 451.17 269.518C456.659 234.457 444.85 198.908 419.473 174.1L402.021 156.997L505.578 53.4409C514.159 44.8063 514.139 30.8573 505.534 22.2462Z" fill="white"/>
</g>
<defs>
<clipPath id="clip0_204_6">
<rect width="512" height="512" fill="white"/>
</clipPath>
</defs>
</svg>
