<svg width="512" height="512" viewBox="0 0 512 512" fill="none" xmlns="http://www.w3.org/2000/svg">
<g clip-path="url(#clip0_260_2)">
<path d="M505.813 475.52L488.107 457.813C489.6 454.827 490.88 451.627 490.88 448V426.667C490.88 384.853 460.587 350.08 420.693 342.827C424.533 328.533 426.88 313.6 426.88 298.667C426.88 292.48 426.027 285.227 424.747 277.333H469.547C481.28 277.333 490.88 267.733 490.88 256C490.88 244.267 481.28 234.667 469.547 234.667H414.507C408.107 212.907 400.427 190.08 393.387 170.667H405.547C452.694 170.667 490.88 132.48 490.88 85.3334V64.0001C490.88 52.2668 481.28 42.6668 469.547 42.6668C457.814 42.6668 448.214 52.2668 448.214 64.0001V85.3334C448.214 108.8 429.014 128 405.547 128H376.96C374.827 122.88 373.547 119.68 373.547 119.467C353.067 72.7468 307.2 42.6668 256.213 42.6668C208 42.6668 164.48 69.7601 142.72 112.213L36.4801 6.18678C28.1601 -2.13322 14.5068 -2.13322 6.18678 6.18678C-2.13322 14.5068 -2.13322 28.1601 6.18678 36.4801L475.52 505.813C479.787 510.08 485.12 512 490.667 512C496.214 512 501.547 509.867 505.813 505.813C514.133 497.493 514.133 484.053 505.813 475.733V475.52ZM135.253 219.733C129.92 214.4 122.24 212.053 114.773 213.973C107.52 215.68 101.547 221.227 99.4135 228.48C98.7735 230.613 98.3468 232.533 97.7068 234.667H42.6668C30.9334 234.667 21.3334 244.267 21.3334 256C21.3334 267.733 30.9334 277.333 42.6668 277.333H87.4668C86.1868 285.44 85.3335 292.693 85.3335 298.667C85.3335 314.027 87.4668 328.747 91.3068 342.827C51.6268 350.08 21.3334 384.853 21.3334 426.667V448C21.3334 459.733 30.9334 469.333 42.6668 469.333C54.4001 469.333 64.0001 459.733 64.0001 448V426.667C64.0001 403.2 83.2001 384 106.667 384C107.307 384 107.733 383.787 108.16 383.787C137.6 434.987 192.853 469.333 256 469.333C279.467 469.333 302.293 464.64 323.627 455.467C330.027 452.693 334.72 446.933 336 440.107C337.28 433.28 335.36 426.027 330.453 421.12L135.253 219.733Z" fill="#9B9797"/>
</g>
<defs>
<clipPath id="clip0_260_2">
<rect width="512" height="512" fill="white"/>
</clipPath>
</defs>
</svg>
