<svg width="24" height="24" viewBox="0 0 24 24" fill="none" xmlns="http://www.w3.org/2000/svg">
<g clip-path="url(#clip0_261_4)">
<path d="M23.043 11.951L21.913 11.275L23.194 10.607C23.681 10.353 23.99 9.85396 24 9.30496C24.01 8.75596 23.72 8.24496 23.242 7.97296L10.235 0.571959C9.17598 -0.0210413 7.94998 -0.160041 6.78498 0.178959C5.61898 0.516959 4.65998 1.29096 4.08198 2.35896C4.08098 2.36096 4.07898 2.36396 4.07798 2.36696L3.05398 4.28696C1.88798 6.44196 2.67998 9.16496 4.80898 10.352L9.98998 13.299L8.99298 16.291C8.65198 17.313 7.69898 18 6.62098 18H3.00098V16.5C3.00098 15.671 2.32998 15 1.50098 15C0.671977 15 0.000976562 15.671 0.000976562 16.5V22.5C0.000976562 23.329 0.671977 24 1.50098 24C2.32998 24 3.00098 23.329 3.00098 22.5V21H6.62098C8.99198 21 11.089 19.489 11.838 17.239L12.648 14.81L14.695 15.974C15.275 16.304 15.915 16.472 16.564 16.472C16.912 16.472 17.262 16.424 17.607 16.326C17.991 16.217 18.339 16.036 18.662 15.822L20.286 16.793C20.521 16.934 20.787 17.006 21.056 17.006C21.19 17.006 21.324 16.988 21.455 16.952C21.85 16.843 22.183 16.577 22.377 16.216L23.595 13.948C23.974 13.242 23.732 12.362 23.044 11.95L23.043 11.951ZM16.178 13.368L6.28098 7.73796C5.56798 7.33996 5.30398 6.43196 5.69698 5.70596L6.72298 3.78296C6.91598 3.42896 7.23498 3.17196 7.62198 3.05896C8.01098 2.94596 8.41898 2.99296 8.76198 3.18396L19.418 9.24796C19.293 9.36096 19.188 9.49496 19.107 9.64396L17.264 13.057C17.125 13.31 16.905 13.405 16.785 13.439C16.665 13.473 16.428 13.508 16.177 13.366L16.178 13.368Z" fill="#F44336"/>
</g>
<defs>
<clipPath id="clip0_261_4">
<rect width="24" height="24" fill="white"/>
</clipPath>
</defs>
</svg>
