<svg width="512" height="512" viewBox="0 0 512 512" fill="none" xmlns="http://www.w3.org/2000/svg">
<g clip-path="url(#clip0_149_2)">
<path d="M256 0C114.837 0 0 114.837 0 256C0 397.163 114.837 512 256 512C397.163 512 512 397.163 512 256C512 114.837 397.163 0 256 0ZM256 448C150.123 448 64 361.877 64 256C64 150.123 150.123 64 256 64C361.877 64 448 150.123 448 256C448 361.877 361.877 448 256 448ZM345.6 189.867L296 256L345.6 322.133C356.203 336.277 353.323 356.352 339.2 366.955C333.419 371.264 326.699 373.355 320.021 373.355C310.293 373.355 300.693 368.939 294.4 360.555L256 309.355L217.6 360.555C211.307 368.939 201.707 373.355 191.979 373.355C185.301 373.355 178.56 371.264 172.8 366.955C158.677 356.352 155.797 336.277 166.4 322.133L216 256L166.4 189.867C155.797 175.723 158.677 155.648 172.8 145.045C186.987 134.464 207.019 137.323 217.621 151.445L256.021 202.645L294.421 151.445C305.045 137.323 325.099 134.464 339.243 145.045C353.365 155.648 356.245 175.723 345.643 189.867H345.6Z" fill="#B31312"/>
</g>
<defs>
<clipPath id="clip0_149_2">
<rect width="512" height="512" fill="white"/>
</clipPath>
</defs>
</svg>
