<svg width="41" height="40" viewBox="0 0 41 40" fill="none" xmlns="http://www.w3.org/2000/svg">
<g clip-path="url(#clip0_15_131)">
<path d="M27.2124 3.33333H26.925C26.2306 1.39333 24.3612 0 22.169 0H18.8067C16.6144 0 14.745 1.39333 14.0507 3.33333H13.7632C9.12825 3.33333 5.35742 7.07167 5.35742 11.6667V31.6667C5.35742 36.2617 9.12825 40 13.7632 40H27.2124C31.8474 40 35.6182 36.2617 35.6182 31.6667V11.6667C35.6182 7.07167 31.8474 3.33333 27.2124 3.33333ZM12.082 28.3333C9.88309 28.3233 9.88309 25.01 12.082 25C14.281 25.01 14.281 28.3233 12.082 28.3333ZM13.2034 20C12.4553 20 11.7509 19.7117 11.223 19.1867L9.52837 17.6017C8.85422 16.97 8.82228 15.915 9.45944 15.245C10.0966 14.575 11.1608 14.545 11.8366 15.1767L13.2 16.4533L15.9571 13.8033C16.6228 13.1633 17.687 13.1783 18.3343 13.84C18.9798 14.5 18.9647 15.555 18.2973 16.1967L15.167 19.205C14.6576 19.7117 13.9532 20 13.2051 20H13.2034ZM28.8936 28.3333H18.8067C16.6077 28.3233 16.6094 25.01 18.8067 25H28.8936C31.0925 25.01 31.0909 28.3233 28.8936 28.3333ZM28.8936 20H22.169C19.97 19.99 19.9717 16.6767 22.169 16.6667H28.8936C31.0925 16.6767 31.0909 19.99 28.8936 20Z" fill="white"/>
</g>
<defs>
<clipPath id="clip0_15_131">
<rect width="40.3477" height="40" fill="white" transform="translate(0.313965)"/>
</clipPath>
</defs>
</svg>
