<svg width="512" height="512" viewBox="0 0 512 512" fill="none" xmlns="http://www.w3.org/2000/svg">
<g clip-path="url(#clip0_184_2)">
<path d="M273.835 0.597333C199.595 -4.416 127.168 22.7627 74.8586 75.1147C22.5492 127.509 -4.50142 200.064 0.618575 274.219C10.0266 409.771 129.749 512 279.104 512H405.333C464.149 512 512 464.149 512 405.333V263.253C512 125.035 407.403 9.68533 273.835 0.597333ZM335.083 304.917C343.424 313.259 343.424 326.741 335.083 335.083C330.923 339.243 325.461 341.333 320 341.333C314.539 341.333 309.077 339.243 304.917 335.083L256 286.165L207.083 335.083C202.923 339.243 197.461 341.333 192 341.333C186.539 341.333 181.077 339.243 176.917 335.083C168.576 326.741 168.576 313.259 176.917 304.917L225.835 256L176.917 207.083C168.576 198.741 168.576 185.259 176.917 176.917C185.259 168.576 198.741 168.576 207.083 176.917L256 225.835L304.917 176.917C313.259 168.576 326.741 168.576 335.083 176.917C343.424 185.259 343.424 198.741 335.083 207.083L286.165 256L335.083 304.917Z" fill="#9B9797"/>
</g>
<defs>
<clipPath id="clip0_184_2">
<rect width="512" height="512" fill="white"/>
</clipPath>
</defs>
</svg>
