<svg width="1000" height="1000" viewBox="0 0 1000 1000" fill="none" xmlns="http://www.w3.org/2000/svg">
<path d="M588.375 500L750 338.208C760.494 326.282 766.052 310.807 765.545 294.929C765.038 279.051 758.504 263.962 747.271 252.729C736.038 241.496 720.949 234.962 705.071 234.455C689.193 233.948 673.718 239.506 661.792 250L500 411.625L337.917 249.5C332.111 243.694 325.219 239.089 317.634 235.947C310.048 232.805 301.919 231.188 293.708 231.188C285.498 231.188 277.368 232.805 269.783 235.947C262.198 239.089 255.306 243.694 249.5 249.5C243.695 255.305 239.089 262.198 235.947 269.783C232.805 277.368 231.188 285.498 231.188 293.708C231.188 301.919 232.805 310.048 235.947 317.634C239.089 325.219 243.695 332.111 249.5 337.917L411.625 500L250 661.75C243.661 667.416 238.545 674.316 234.965 682.027C231.385 689.739 229.416 698.1 229.178 706.598C228.94 715.097 230.439 723.555 233.582 731.454C236.725 739.354 241.447 746.529 247.459 752.541C253.471 758.553 260.646 763.275 268.546 766.418C276.445 769.562 284.903 771.06 293.402 770.822C301.9 770.584 310.261 768.615 317.973 765.035C325.684 761.455 332.584 756.339 338.25 750L500 588.375L661.583 750C673.308 761.725 689.21 768.312 705.792 768.312C722.373 768.312 738.275 761.725 750 750C761.725 738.275 768.312 722.373 768.312 705.792C768.312 689.21 761.725 673.308 750 661.583L588.375 500Z" fill="white"/>
</svg>
