<svg width="28" height="28" viewBox="0 0 28 28" fill="none" xmlns="http://www.w3.org/2000/svg">
<g clip-path="url(#clip0_310_427)">
<path d="M16.2513 8.12583V0.533983C17.3251 0.939503 18.3005 1.56865 19.1127 2.37971L23.1571 6.42637C23.9691 7.23766 24.5987 8.21277 25.004 9.28667H17.4121C17.1043 9.28667 16.809 9.16436 16.5913 8.94667C16.3736 8.72897 16.2513 8.43371 16.2513 8.12583ZM25.538 12.1713V22.0558C25.5361 23.5946 24.924 25.0699 23.8359 26.158C22.7478 27.2461 21.2726 27.8582 19.7338 27.86H8.12546C6.58666 27.8582 5.11142 27.2461 4.02333 26.158C2.93523 25.0699 2.32313 23.5946 2.32129 22.0558V5.80417C2.32313 4.26537 2.93523 2.79013 4.02333 1.70204C5.11142 0.613944 6.58666 0.00184324 8.12546 0L13.3666 0C13.5558 0 13.7427 0.0150908 13.9296 0.02786V8.12583C13.9296 9.04945 14.2965 9.93524 14.9496 10.5883C15.6027 11.2414 16.4885 11.6083 17.4121 11.6083H25.5101C25.5229 11.7952 25.538 11.9821 25.538 12.1713ZM15.571 19.7342L17.6524 17.6528C17.8639 17.4339 17.9809 17.1406 17.9782 16.8363C17.9756 16.5319 17.8535 16.2407 17.6383 16.0255C17.423 15.8103 17.1319 15.6882 16.8275 15.6856C16.5232 15.6829 16.2299 15.7999 16.011 16.0114L13.9296 18.0927L11.8482 16.0114C11.6293 15.7999 11.3361 15.6829 11.0317 15.6856C10.7274 15.6882 10.4362 15.8103 10.221 16.0255C10.0057 16.2407 9.88366 16.5319 9.88102 16.8363C9.87837 17.1406 9.99538 17.4339 10.2068 17.6528L12.2882 19.7342L10.2068 21.8155C10.096 21.9226 10.0075 22.0507 9.94669 22.1923C9.88585 22.334 9.85382 22.4863 9.85249 22.6404C9.85115 22.7946 9.88052 22.9474 9.93889 23.0901C9.99725 23.2327 10.0834 23.3624 10.1924 23.4713C10.3014 23.5803 10.431 23.6665 10.5737 23.7249C10.7164 23.7833 10.8692 23.8126 11.0234 23.8113C11.1775 23.81 11.3298 23.7779 11.4714 23.7171C11.6131 23.6563 11.7412 23.5678 11.8482 23.457L13.9296 21.3756L16.011 23.457C16.2299 23.6684 16.5232 23.7854 16.8275 23.7828C17.1319 23.7801 17.423 23.658 17.6383 23.4428C17.8535 23.2276 17.9756 22.9364 17.9782 22.6321C17.9809 22.3277 17.8639 22.0345 17.6524 21.8155L15.571 19.7342Z" fill="white"/>
</g>
<defs>
<clipPath id="clip0_310_427">
<rect width="27.86" height="27.86" fill="white"/>
</clipPath>
</defs>
</svg>
