<svg width="35" height="35" viewBox="0 0 35 35" fill="none" xmlns="http://www.w3.org/2000/svg">
<g clip-path="url(#clip0_28_107)">
<path d="M26.9792 13.8542C27.5593 13.8542 28.1157 13.6237 28.526 13.2135C28.9362 12.8032 29.1667 12.2468 29.1667 11.6667V10.6648C29.164 8.61069 28.3468 6.64149 26.8943 5.18902C25.4419 3.73655 23.4727 2.91937 21.4186 2.91667H19.6875V2.1875C19.6875 1.60734 19.457 1.05094 19.0468 0.640704C18.6366 0.230468 18.0802 0 17.5 0C16.9198 0 16.3634 0.230468 15.9532 0.640704C15.543 1.05094 15.3125 1.60734 15.3125 2.1875V2.91667H13.5815C11.7213 2.91389 9.92228 3.58041 8.51296 4.79447C7.10364 6.00852 6.17812 7.68907 5.90548 9.52912C5.63283 11.3692 6.03126 13.2459 7.02797 14.8165C8.02469 16.387 9.55316 17.5466 11.3342 18.0833L15.3125 19.1713V27.7083H13.5815C12.6872 27.7072 11.8299 27.3514 11.1976 26.7191C10.5653 26.0868 10.2095 25.2295 10.2083 24.3352V23.3333C10.2083 22.7532 9.97788 22.1968 9.56764 21.7865C9.1574 21.3763 8.601 21.1458 8.02084 21.1458C7.44068 21.1458 6.88428 21.3763 6.47405 21.7865C6.06381 22.1968 5.83334 22.7532 5.83334 23.3333V24.3352C5.83604 26.3893 6.65323 28.3585 8.1057 29.811C9.55817 31.2634 11.5274 32.0806 13.5815 32.0833H15.3125V32.8125C15.3125 33.3927 15.543 33.9491 15.9532 34.3593C16.3634 34.7695 16.9198 35 17.5 35C18.0802 35 18.6366 34.7695 19.0468 34.3593C19.457 33.9491 19.6875 33.3927 19.6875 32.8125V32.0833H21.4186C23.2787 32.0861 25.0777 31.4196 26.4871 30.2055C27.8964 28.9915 28.8219 27.3109 29.0945 25.4709C29.3672 23.6308 28.9688 21.7541 27.972 20.1835C26.9753 18.613 25.4469 17.4534 23.6658 16.9167L19.6875 15.8317V7.29167H21.4186C22.3128 7.29282 23.1701 7.64858 23.8024 8.28091C24.4348 8.91324 24.7905 9.77054 24.7917 10.6648V11.6667C24.7917 12.2468 25.0221 12.8032 25.4324 13.2135C25.8426 13.6237 26.399 13.8542 26.9792 13.8542ZM22.4321 21.1152C23.2014 21.3577 23.8585 21.8677 24.2842 22.5528C24.7099 23.238 24.8761 24.053 24.7527 24.8501C24.6292 25.6472 24.2244 26.3738 23.6114 26.8981C22.9984 27.4225 22.2179 27.7099 21.4113 27.7083H19.6875V20.3656L22.4321 21.1152ZM15.3125 14.6344L12.5679 13.8848C11.7992 13.6425 11.1425 13.1331 10.7168 12.4487C10.2911 11.7643 10.1244 10.9502 10.2468 10.1535C10.3693 9.35686 10.7729 8.63035 11.3845 8.10543C11.9961 7.58051 12.7755 7.29185 13.5815 7.29167H15.3125V14.6344Z" fill="#090D3E"/>
</g>
<defs>
<clipPath id="clip0_28_107">
<rect width="35" height="35" fill="white"/>
</clipPath>
</defs>
</svg>
