<svg width="28" height="28" viewBox="0 0 28 28" fill="none" xmlns="http://www.w3.org/2000/svg">
<g clip-path="url(#clip0_310_423)">
<path d="M20.8945 22.0559V27.5118C21.7138 27.2309 22.4594 26.769 23.0757 26.1606L26.1589 23.0751C26.7681 22.4595 27.2304 21.7143 27.5113 20.895H22.0554C21.7475 20.895 21.4522 21.0173 21.2345 21.235C21.0168 21.4527 20.8945 21.748 20.8945 22.0559Z" fill="white"/>
<path d="M8.32534 16.0521C7.894 16.4833 7.55184 16.9953 7.3184 17.5587C7.08496 18.1222 6.96482 18.7262 6.96484 19.3361V20.8951H8.52384C9.13376 20.8951 9.73771 20.775 10.3012 20.5415C10.8647 20.3081 11.3766 19.9659 11.8078 19.5346L24.9578 6.38466C25.4196 5.92285 25.679 5.2965 25.679 4.64341C25.679 3.99031 25.4196 3.36397 24.9578 2.90216C24.496 2.44035 23.8696 2.18091 23.2165 2.18091C22.5634 2.18091 21.9371 2.44035 21.4753 2.90216L8.32534 16.0521Z" fill="white"/>
<path d="M27.86 5.74845C27.6623 6.60956 27.2281 7.39836 26.6063 8.026L13.4494 21.1771C12.8041 21.8258 12.0365 22.3401 11.191 22.6902C10.3456 23.0403 9.43906 23.2193 8.524 23.2167H6.965C6.34926 23.2167 5.75873 22.9721 5.32333 22.5367C4.88794 22.1013 4.64333 21.5107 4.64333 20.895V19.336C4.64079 18.421 4.81986 17.5146 5.17017 16.6693C5.52047 15.8241 6.03505 15.0567 6.68408 14.4117L19.834 1.26066C20.4569 0.637923 21.2413 0.201334 22.0988 0C22.0837 0 22.0709 0 22.0558 0H5.80417C4.26537 0.00184324 2.79013 0.613944 1.70204 1.70204C0.613944 2.79013 0.00184324 4.26537 0 5.80417L0 22.0558C0.00184324 23.5946 0.613944 25.0699 1.70204 26.158C2.79013 27.2461 4.26537 27.8582 5.80417 27.86H18.5733V22.0558C18.5733 21.1322 18.9402 20.2464 19.5933 19.5933C20.2464 18.9402 21.1322 18.5733 22.0558 18.5733H27.86V5.80417C27.86 5.78559 27.86 5.76818 27.86 5.74845Z" fill="white"/>
</g>
<defs>
<clipPath id="clip0_310_423">
<rect width="27.86" height="27.86" fill="white"/>
</clipPath>
</defs>
</svg>
