<svg width="512" height="512" viewBox="0 0 512 512" fill="none" xmlns="http://www.w3.org/2000/svg">
<g clip-path="url(#clip0_439_16)">
<path d="M170.24 343.68C170.24 353.707 161.494 362.027 151.254 362.027H133.547V325.333H151.467C161.707 325.333 170.454 333.653 170.454 343.68H170.24ZM320 170.667H459.52C452.054 151.253 440.747 133.333 425.6 118.187L351.36 43.7333C336.214 28.5867 318.294 17.28 298.88 9.81333V149.333C298.88 161.067 308.48 170.667 320.214 170.667H320ZM257.92 325.333H240V400H257.92C268.16 400 276.907 391.68 276.907 381.653V343.68C276.907 333.653 268.16 325.333 257.92 325.333ZM469.334 223.787V405.333C469.334 464.213 421.547 512 362.667 512H149.334C90.4537 512 42.667 464.213 42.667 405.333V106.667C42.667 47.7867 90.4537 0 149.334 0H245.547C248.96 0 252.374 0.213333 256 0.426667V149.333C256 184.533 284.8 213.333 320 213.333H468.907C469.12 216.747 469.334 220.16 469.334 223.787ZM196.907 343.68C196.907 318.933 176.427 298.667 151.254 298.667H128C116.267 298.667 106.667 308.267 106.667 320V414.72C106.667 422.187 112.64 427.947 119.894 427.947C127.147 427.947 133.12 421.973 133.12 414.72V388.693H151.04C176.214 388.693 196.694 368.427 196.694 343.68H196.907ZM303.574 343.68C303.574 318.933 283.094 298.667 257.92 298.667H234.667C222.934 298.667 213.334 308.267 213.334 320V414.72C213.334 422.187 219.307 426.667 226.56 426.667C233.814 426.667 257.707 426.667 257.707 426.667C282.88 426.667 303.36 406.4 303.36 381.653V343.68H303.574ZM405.76 312.107C405.76 304.64 399.787 298.88 392.534 298.88H343.254C335.787 298.88 330.027 304.853 330.027 312.107V414.72C330.027 422.187 336 427.947 343.254 427.947C350.507 427.947 356.48 421.973 356.48 414.72V376.32H382.934C390.4 376.32 396.16 370.347 396.16 363.093C396.16 355.84 390.187 349.867 382.934 349.867H356.48V325.547H392.534C400 325.547 405.76 319.573 405.76 312.32V312.107Z" fill="white"/>
</g>
<defs>
<clipPath id="clip0_439_16">
<rect width="512" height="512" fill="white"/>
</clipPath>
</defs>
</svg>
