<svg width="29" height="30" viewBox="0 0 29 30" fill="none" xmlns="http://www.w3.org/2000/svg">
<g clip-path="url(#clip0_303_413)">
<path d="M27.4904 22.2341L25.6217 24.1258C25.3895 24.3608 25.0994 24.4665 24.7976 24.4665C24.4958 24.4665 24.2056 24.349 23.9735 24.1258C23.5208 23.6676 23.5208 22.9273 23.9735 22.4691L25.4708 20.9534H16.8815C16.2431 20.9534 15.7208 20.4247 15.7208 19.7785C15.7208 19.1322 16.2431 18.6035 16.8815 18.6035H25.4708L23.9735 17.0878C23.5208 16.6296 23.5208 15.8894 23.9735 15.4312C24.4261 14.9729 25.1574 14.9729 25.6101 15.4312L27.4788 17.3228C28.8136 18.674 28.8136 20.8829 27.4788 22.2459L27.4904 22.2341ZM15.7324 10.3789H23.3235C22.9172 9.30965 22.302 8.32269 21.4779 7.48848L17.4386 3.3879C16.6145 2.55368 15.6395 1.93096 14.5833 1.51973V9.20391C14.5833 9.85013 15.1056 10.3789 15.744 10.3789H15.7324ZM21.3154 23.3033H16.8931C14.9779 23.3033 13.4109 21.7171 13.4109 19.7785C13.4109 17.8398 14.9779 16.2536 16.8931 16.2536H21.3154C21.3154 15.3489 21.652 14.4442 22.3369 13.7627C22.7663 13.328 23.2886 13.0225 23.8342 12.8698V12.7288H15.7324C13.8172 12.7288 12.2502 11.1426 12.2502 9.20391V1.00275C12.0645 0.990998 11.8788 0.979248 11.6815 0.979248H6.44665C3.24307 0.979248 0.643066 3.61114 0.643066 6.85401V23.3033C0.643066 26.5462 3.24307 29.1781 6.44665 29.1781H18.0538C20.1547 29.1781 22.0002 28.0384 23.0217 26.3347C22.7779 26.182 22.5458 26.0057 22.3369 25.7942C21.6636 25.1128 21.3154 24.208 21.3154 23.3033Z" fill="white"/>
</g>
<defs>
<clipPath id="clip0_303_413">
<rect width="27.8572" height="28.1988" fill="white" transform="translate(0.643066 0.979248)"/>
</clipPath>
</defs>
</svg>
