<svg width="512" height="512" viewBox="0 0 512 512" fill="none" xmlns="http://www.w3.org/2000/svg">
<g clip-path="url(#clip0_328_2)">
<path d="M298.667 149.333V9.81333C318.08 17.28 336 28.5867 351.147 43.7333L425.387 118.187C440.533 133.333 451.84 151.253 459.307 170.667H319.787C308.053 170.667 298.453 161.067 298.453 149.333H298.667ZM469.333 223.787V405.333C469.333 464.213 421.547 512 362.667 512H149.333C90.4533 512 42.6667 464.213 42.6667 405.333V106.667C42.6667 47.7867 90.4533 0 149.333 0H245.547C248.96 0 252.373 0.213333 256 0.426667V149.333C256 184.533 284.8 213.333 320 213.333H468.907C469.12 216.747 469.333 220.16 469.333 223.787ZM283.733 362.667L325.76 312.32C333.227 303.36 332.16 289.92 322.987 282.24C313.813 274.773 300.587 275.84 292.907 285.013L256 329.387L219.093 285.013C211.627 276.053 198.187 274.773 189.013 282.24C180.053 289.707 178.773 303.147 186.24 312.32L228.267 362.667L186.24 413.013C178.773 421.973 179.84 435.413 189.013 443.093C193.067 446.507 197.76 448 202.667 448C208.853 448 214.827 445.44 219.093 440.32L256 395.947L292.907 440.32C297.173 445.44 303.147 448 309.333 448C314.24 448 318.933 446.293 322.987 443.093C331.947 435.627 333.227 422.187 325.76 413.013L283.733 362.667Z" fill="white"/>
</g>
<defs>
<clipPath id="clip0_328_2">
<rect width="512" height="512" fill="white"/>
</clipPath>
</defs>
</svg>
