<svg width="40" height="40" viewBox="0 0 40 40" fill="none" xmlns="http://www.w3.org/2000/svg">
<g clip-path="url(#clip0_15_140)">
<path d="M16.6667 13.3333V11.6667H3.33333V25C3.33333 27.7567 5.57667 30 8.33333 30H16.6667V26.6667C16.6667 23.91 18.91 21.6667 21.6667 21.6667H25.9767C26.8667 21.6667 27.7033 22.0133 28.3333 22.6433L30.69 25H35C37.7567 25 40 27.2433 40 30V35C40 37.7567 37.7567 40 35 40H21.6667C18.91 40 16.6667 37.7567 16.6667 35V33.3333H8.33333C3.73833 33.3333 0 29.595 0 25V1.66667C0.01 -0.513333 3.325 -0.511667 3.33333 1.66667V8.33333H16.6667V5C16.6667 2.24333 18.91 0 21.6667 0H25.9767C26.8667 0 27.7033 0.346667 28.3333 0.976667L30.69 3.33333H35C37.7567 3.33333 40 5.57667 40 8.33333V13.3333C40 16.09 37.7567 18.3333 35 18.3333H21.6667C18.91 18.3333 16.6667 16.09 16.6667 13.3333Z" fill="white"/>
</g>
<defs>
<clipPath id="clip0_15_140">
<rect width="40" height="40" fill="white"/>
</clipPath>
</defs>
</svg>
