<svg width="512" height="512" viewBox="0 0 512 512" fill="none" xmlns="http://www.w3.org/2000/svg">
<g clip-path="url(#clip0_421_5)">
<path d="M277.76 330.453C291.2 342.613 298.667 359.893 298.667 377.813V512H88.7466L22.1866 439.253C7.89329 423.467 -0.213379 402.987 -0.213379 381.653V117.333C-0.213379 85.9733 26.6666 61.0133 58.6666 64.2133C86.4 66.9867 106.453 92.3733 106.453 120.32V204.587C106.453 204.587 90.24 217.813 87.04 221.227C57.1733 254.08 56.1066 304.64 84.2666 338.987L157.653 413.013L187.52 383.147L118.4 313.387C105.6 297.813 102.4 275.627 112.64 258.133C128.427 231.467 163.627 226.987 185.387 246.827L277.547 330.453H277.76ZM285.44 170.667H234.667C222.933 170.667 213.333 161.067 213.333 149.333H170.667C170.667 184.533 199.467 213.333 234.667 213.333V234.667H277.333V213.333H285.44C316.373 213.333 341.333 188.16 341.333 157.44C341.333 129.92 321.707 106.667 294.613 102.187L224.64 90.4533C218.24 89.3867 213.547 83.84 213.547 77.2267C213.547 69.9733 219.52 64 226.773 64H277.547C289.28 64 298.88 73.6 298.88 85.3333H341.547C341.547 50.1333 312.747 21.3333 277.547 21.3333V0H234.88V21.3333H226.773C195.84 21.3333 170.88 46.5067 170.88 77.2267C170.88 104.747 190.507 128 217.6 132.48L287.573 144.213C293.973 145.28 298.667 150.827 298.667 157.44C298.667 164.693 292.693 170.667 285.44 170.667ZM399.147 258.133C383.36 231.467 348.16 226.987 326.4 246.827L287.787 282.027L306.347 298.88C325.973 316.587 337.493 341.333 340.267 367.36L393.387 313.387C406.187 297.813 409.387 275.627 399.147 258.133ZM458.667 64C429.227 64 405.333 87.8933 405.333 117.333V204.8C405.333 204.8 421.547 218.027 424.747 221.44C454.613 254.293 455.68 304.853 427.52 339.2L341.547 426.453V512.213H423.467L490.027 439.467C504.32 423.68 512.427 403.2 512.427 381.867V117.333C512.427 87.8933 488.533 64 459.093 64H458.667Z" fill="#505765"/>
</g>
<defs>
<clipPath id="clip0_421_5">
<rect width="512" height="512" fill="white"/>
</clipPath>
</defs>
</svg>
