<svg width="25" height="25" viewBox="0 0 25 25" fill="none" xmlns="http://www.w3.org/2000/svg">
<g clip-path="url(#clip0_303_161)">
<path d="M23.4375 9.37506C23.8519 9.37506 24.2493 9.21044 24.5424 8.91741C24.8354 8.62439 25 8.22696 25 7.81256C25 7.39816 24.8354 7.00073 24.5424 6.7077C24.2493 6.41468 23.8519 6.25006 23.4375 6.25006H19.6583L20.2969 1.78339C20.3259 1.58025 20.3146 1.37339 20.2636 1.17462C20.2127 0.975845 20.1231 0.789053 20 0.624906C19.8768 0.460759 19.7226 0.322472 19.546 0.217942C19.3694 0.113411 19.174 0.044684 18.9708 0.0156837C18.7677 -0.0133165 18.5608 -0.0020217 18.3621 0.0489233C18.1633 0.0998683 17.9765 0.189466 17.8123 0.3126C17.6482 0.435735 17.5099 0.589994 17.4054 0.766572C17.3009 0.94315 17.2321 1.13859 17.2031 1.34173L16.5021 6.25006H10.2833L10.9219 1.78339C10.9509 1.58025 10.9396 1.37339 10.8886 1.17462C10.8377 0.975845 10.7481 0.789053 10.625 0.624906C10.5018 0.460759 10.3476 0.322472 10.171 0.217942C9.99441 0.113411 9.79897 0.044684 9.59583 0.0156837C9.39269 -0.0133165 9.18583 -0.0020217 8.98706 0.0489233C8.78829 0.0998683 8.60149 0.189466 8.43735 0.3126C8.2732 0.435735 8.13491 0.589994 8.03038 0.766572C7.92585 0.94315 7.85712 1.13859 7.82812 1.34173L7.12708 6.25006H2.60417C2.18977 6.25006 1.79234 6.41468 1.49931 6.7077C1.20629 7.00073 1.04167 7.39816 1.04167 7.81256C1.04167 8.22696 1.20629 8.62439 1.49931 8.91741C1.79234 9.21044 2.18977 9.37506 2.60417 9.37506H6.68021L5.7875 15.6251H1.5625C1.1481 15.6251 0.750671 15.7897 0.457646 16.0827C0.16462 16.3757 0 16.7732 0 17.1876C0 17.602 0.16462 17.9994 0.457646 18.2924C0.750671 18.5854 1.1481 18.7501 1.5625 18.7501H5.34167L4.70312 23.2167C4.67412 23.4199 4.68542 23.6267 4.73636 23.8255C4.78731 24.0243 4.87691 24.2111 5.00004 24.3752C5.24872 24.7067 5.61891 24.9259 6.02917 24.9844C6.43942 25.043 6.85614 24.9362 7.18765 24.6875C7.3518 24.5644 7.49009 24.4101 7.59462 24.2335C7.69915 24.057 7.76787 23.8615 7.79687 23.6584L8.49792 18.7501H14.7167L14.0781 23.2167C14.0196 23.627 14.1264 24.0437 14.375 24.3752C14.6237 24.7067 14.9939 24.9259 15.4042 24.9844C15.8144 25.043 16.2311 24.9362 16.5627 24.6875C16.8942 24.4388 17.1133 24.0687 17.1719 23.6584L17.8729 18.7501H22.3958C22.8102 18.7501 23.2077 18.5854 23.5007 18.2924C23.7937 17.9994 23.9583 17.602 23.9583 17.1876C23.9583 16.7732 23.7937 16.3757 23.5007 16.0827C23.2077 15.7897 22.8102 15.6251 22.3958 15.6251H18.3198L19.2125 9.37506H23.4375ZM15.1625 15.6251H8.94479L9.8375 9.37506H16.0552L15.1625 15.6251Z" fill="#505765"/>
</g>
<defs>
<clipPath id="clip0_303_161">
<rect width="25" height="25" fill="white"/>
</clipPath>
</defs>
</svg>
