<svg width="512" height="512" viewBox="0 0 512 512" fill="none" xmlns="http://www.w3.org/2000/svg">
<g clip-path="url(#clip0_194_2)">
<path d="M512 512H0V490.667C0 455.381 28.7147 426.667 64 426.667H448C483.285 426.667 512 455.381 512 490.667V512ZM79.3173 110.976L29.8667 63.616L0.384 94.4213L49.8133 141.781L79.3173 110.976ZM161.707 57.792L135.829 -0.170654L96.8747 17.1947L122.752 75.1573L161.707 57.792ZM511.616 94.4213L482.112 63.6373L432.683 110.997L462.187 141.781L511.616 94.4213ZM415.125 17.216L376.171 -0.170654L350.293 57.792L389.248 75.1573L415.125 17.216ZM448 277.333C448 171.456 361.877 85.3333 256 85.3333C150.123 85.3333 64 171.456 64 277.333V384H448V277.333ZM256 234.667C232.469 234.667 213.333 253.803 213.333 277.333H170.667C170.667 230.272 208.939 192 256 192V234.667Z" fill="#664D03"/>
</g>
<defs>
<clipPath id="clip0_194_2">
<rect width="512" height="512" fill="white"/>
</clipPath>
</defs>
</svg>
