<svg width="470" height="134" viewBox="0 0 470 134" fill="none" xmlns="http://www.w3.org/2000/svg">
<path d="M466.05 21.8913L448.169 94.5111C447.688 96.4636 446.084 97.9382 444.098 98.2537L235.767 131.353C235.256 131.434 234.734 131.436 234.222 131.357L19.3245 98.2956C17.1857 97.9666 15.5013 96.299 15.1508 94.1637L3.22986 21.5446C2.74983 18.6204 4.90398 15.9227 7.86191 15.7438L235 2.00366L461.497 15.705C464.613 15.8935 466.797 18.86 466.05 21.8913Z" fill="#8F100F"/>
<path d="M466.05 21.8913L448.169 94.5111C447.688 96.4636 446.084 97.9382 444.098 98.2537L235.767 131.353C235.256 131.434 234.734 131.436 234.222 131.357L19.3245 98.2956C17.1857 97.9666 15.5013 96.299 15.1508 94.1637L3.22986 21.5446C2.74983 18.6204 4.90398 15.9227 7.86191 15.7438L235 2.00366L461.497 15.705C464.613 15.8935 466.797 18.86 466.05 21.8913Z" fill="url(#paint0_linear_450_47)"/>
<path d="M466.05 21.8913L448.169 94.5111C447.688 96.4636 446.084 97.9382 444.098 98.2537L235.767 131.353C235.256 131.434 234.734 131.436 234.222 131.357L19.3245 98.2956C17.1857 97.9666 15.5013 96.299 15.1508 94.1637L3.22986 21.5446C2.74983 18.6204 4.90398 15.9227 7.86191 15.7438L235 2.00366L461.497 15.705C464.613 15.8935 466.797 18.86 466.05 21.8913Z" stroke="black" stroke-width="4"/>
<path d="M135.156 61.86C132.54 61.86 130.2 61.26 128.136 60.06C126.072 58.86 124.452 57.216 123.276 55.128C122.124 53.016 121.548 50.652 121.548 48.036C121.548 45.492 122.136 43.2 123.312 41.16C124.488 39.12 126.12 37.524 128.208 36.372C130.296 35.22 132.648 34.644 135.264 34.644C136.68 34.644 137.952 34.776 139.08 35.04C140.232 35.28 141.168 35.568 141.888 35.904C142.608 36.216 143.1 36.492 143.364 36.732L141.78 40.116C140.292 38.916 138.096 38.316 135.192 38.316C133.272 38.316 131.604 38.736 130.188 39.576C128.772 40.416 127.692 41.556 126.948 42.996C126.204 44.436 125.832 46.044 125.832 47.82C125.832 49.836 126.228 51.636 127.02 53.22C127.836 54.804 128.952 56.04 130.368 56.928C131.808 57.792 133.428 58.224 135.228 58.224C136.356 58.224 137.436 58.092 138.468 57.828C139.5 57.54 140.376 57.096 141.096 56.496V51.384H135.66V47.676H145.092V58.044C144.228 59.124 142.92 60.036 141.168 60.78C139.44 61.5 137.436 61.86 135.156 61.86ZM149.597 35.04H153.665V57.9H161.261V61.5H149.597V35.04ZM177.304 61.86C174.904 61.86 172.684 61.308 170.644 60.204C168.628 59.076 167.02 57.48 165.82 55.416C164.62 53.352 164.02 50.952 164.02 48.216C164.02 45.456 164.62 43.056 165.82 41.016C167.02 38.952 168.628 37.368 170.644 36.264C172.684 35.16 174.904 34.608 177.304 34.608C179.704 34.608 181.912 35.16 183.928 36.264C185.968 37.368 187.588 38.952 188.788 41.016C189.988 43.056 190.588 45.456 190.588 48.216C190.588 50.952 189.988 53.352 188.788 55.416C187.588 57.48 185.968 59.076 183.928 60.204C181.912 61.308 179.704 61.86 177.304 61.86ZM177.304 58.224C178.96 58.224 180.472 57.84 181.84 57.072C183.208 56.28 184.288 55.14 185.08 53.652C185.896 52.14 186.304 50.34 186.304 48.252C186.304 46.14 185.896 44.34 185.08 42.852C184.288 41.34 183.208 40.2 181.84 39.432C180.496 38.664 178.984 38.28 177.304 38.28C175.624 38.28 174.1 38.664 172.732 39.432C171.364 40.2 170.284 41.34 169.492 42.852C168.7 44.34 168.304 46.14 168.304 48.252C168.304 50.34 168.712 52.14 169.528 53.652C170.344 55.14 171.436 56.28 172.804 57.072C174.196 57.84 175.696 58.224 177.304 58.224ZM208.301 61.5L202.973 51.492C201.869 51.54 200.885 51.564 200.021 51.564H199.013V61.5H195.089V35.04H201.101C204.149 35.04 206.657 35.676 208.625 36.948C210.593 38.196 211.577 40.236 211.577 43.068C211.577 44.844 211.157 46.38 210.317 47.676C209.501 48.948 208.277 49.932 206.645 50.628L212.945 61.5H208.301ZM201.569 48.288C203.921 48.288 205.529 47.784 206.393 46.776C207.281 45.744 207.725 44.52 207.725 43.104C207.725 39.96 205.625 38.388 201.425 38.388H199.013V48.288H201.569ZM222.858 49.152L213.678 35.04H218.502L224.874 45.48L231.246 35.04H236.034L226.89 49.224V61.5H222.858V49.152ZM253.169 61.86C251.729 61.86 250.301 61.608 248.885 61.104C247.469 60.6 246.449 60.036 245.825 59.412L247.733 55.992C248.237 56.448 249.017 56.928 250.073 57.432C251.153 57.912 252.185 58.152 253.169 58.152C254.441 58.152 255.473 57.852 256.265 57.252C257.081 56.652 257.489 55.824 257.489 54.768C257.489 53.952 257.273 53.244 256.841 52.644C256.409 52.044 255.881 51.552 255.257 51.168C254.633 50.76 253.745 50.268 252.593 49.692C251.225 49.02 250.289 48.516 249.785 48.18C247.457 46.62 246.293 44.46 246.293 41.7C246.293 39.42 247.049 37.68 248.561 36.48C250.073 35.256 251.981 34.644 254.285 34.644C256.757 34.644 258.857 35.352 260.585 36.768L258.677 40.044C258.221 39.564 257.573 39.156 256.733 38.82C255.917 38.46 255.041 38.28 254.105 38.28C252.905 38.28 251.957 38.556 251.261 39.108C250.589 39.636 250.253 40.428 250.253 41.484C250.253 42.228 250.469 42.9 250.901 43.5C251.333 44.076 251.873 44.58 252.521 45.012C253.193 45.444 254.093 45.972 255.221 46.596C256.301 47.196 257.129 47.676 257.705 48.036C258.281 48.372 258.821 48.78 259.325 49.26C260.021 49.884 260.585 50.628 261.017 51.492C261.449 52.356 261.665 53.304 261.665 54.336C261.665 55.944 261.293 57.312 260.549 58.44C259.829 59.568 258.821 60.42 257.525 60.996C256.253 61.572 254.801 61.86 253.169 61.86ZM269.95 38.568H263.182V35.04H280.786V38.568H273.946V61.5H269.95V38.568ZM295.394 61.86C292.994 61.86 290.774 61.308 288.734 60.204C286.718 59.076 285.11 57.48 283.91 55.416C282.71 53.352 282.11 50.952 282.11 48.216C282.11 45.456 282.71 43.056 283.91 41.016C285.11 38.952 286.718 37.368 288.734 36.264C290.774 35.16 292.994 34.608 295.394 34.608C297.794 34.608 300.002 35.16 302.018 36.264C304.058 37.368 305.678 38.952 306.878 41.016C308.078 43.056 308.678 45.456 308.678 48.216C308.678 50.952 308.078 53.352 306.878 55.416C305.678 57.48 304.058 59.076 302.018 60.204C300.002 61.308 297.794 61.86 295.394 61.86ZM295.394 58.224C297.05 58.224 298.562 57.84 299.93 57.072C301.298 56.28 302.378 55.14 303.17 53.652C303.986 52.14 304.394 50.34 304.394 48.252C304.394 46.14 303.986 44.34 303.17 42.852C302.378 41.34 301.298 40.2 299.93 39.432C298.586 38.664 297.074 38.28 295.394 38.28C293.714 38.28 292.19 38.664 290.822 39.432C289.454 40.2 288.374 41.34 287.582 42.852C286.79 44.34 286.394 46.14 286.394 48.252C286.394 50.34 286.802 52.14 287.618 53.652C288.434 55.14 289.526 56.28 290.894 57.072C292.286 57.84 293.786 58.224 295.394 58.224ZM326.391 61.5L321.063 51.492C319.959 51.54 318.975 51.564 318.111 51.564H317.103V61.5H313.179V35.04H319.191C322.239 35.04 324.747 35.676 326.715 36.948C328.683 38.196 329.667 40.236 329.667 43.068C329.667 44.844 329.247 46.38 328.407 47.676C327.591 48.948 326.367 49.932 324.735 50.628L331.035 61.5H326.391ZM319.659 48.288C322.011 48.288 323.619 47.784 324.483 46.776C325.371 45.744 325.815 44.52 325.815 43.104C325.815 39.96 323.715 38.388 319.515 38.388H317.103V48.288H319.659ZM335.116 35.04H346.708V38.568H339.112V45.876H345.232V49.476H339.112V57.936H347.896V61.5H335.116V35.04Z" fill="#F5F7F9"/>
<path d="M201.575 95.25C201.575 95.3 201.525 95.3333 201.425 95.35C201.342 95.35 201.292 95.325 201.275 95.275C201.158 94.3583 200.833 93.6667 200.3 93.2C199.767 92.7167 199.067 92.475 198.2 92.475H196.925C196.208 92.475 195.717 92.575 195.45 92.775C195.2 92.975 195.075 93.3583 195.075 93.925V99.375H197.375C198.275 99.375 198.933 99.225 199.35 98.925C199.783 98.625 200 98.175 200 97.575C200 97.5417 200.05 97.525 200.15 97.525C200.25 97.525 200.3 97.5417 200.3 97.575L200.275 99.675C200.275 100.175 200.283 100.55 200.3 100.8L200.325 102.05C200.325 102.083 200.275 102.1 200.175 102.1C200.075 102.1 200.025 102.083 200.025 102.05C200.025 101.333 199.808 100.808 199.375 100.475C198.942 100.125 198.25 99.95 197.3 99.95H195.075V105.375C195.075 105.908 195.142 106.3 195.275 106.55C195.425 106.783 195.7 106.95 196.1 107.05C196.5 107.15 197.133 107.2 198 107.2C198.033 107.2 198.05 107.25 198.05 107.35C198.05 107.45 198.033 107.5 198 107.5C197.317 107.5 196.783 107.492 196.4 107.475L194.05 107.45L192.3 107.475C191.983 107.492 191.542 107.5 190.975 107.5C190.942 107.5 190.925 107.45 190.925 107.35C190.925 107.25 190.942 107.2 190.975 107.2C191.592 107.2 192.042 107.158 192.325 107.075C192.625 106.992 192.825 106.833 192.925 106.6C193.025 106.35 193.075 105.975 193.075 105.475V93.9C193.075 93.4 193.025 93.0333 192.925 92.8C192.825 92.5667 192.633 92.4083 192.35 92.325C192.083 92.225 191.658 92.175 191.075 92.175C191.025 92.175 191 92.125 191 92.025C191 91.925 191.025 91.875 191.075 91.875H201.275C201.442 91.875 201.525 91.95 201.525 92.1L201.575 95.25ZM216.131 107.2C216.215 107.2 216.256 107.25 216.256 107.35C216.256 107.45 216.215 107.5 216.131 107.5C215.815 107.5 215.323 107.483 214.656 107.45C213.956 107.417 213.456 107.4 213.156 107.4C212.906 107.4 212.531 107.417 212.031 107.45C211.565 107.483 211.206 107.5 210.956 107.5C210.89 107.5 210.856 107.45 210.856 107.35C210.856 107.25 210.89 107.2 210.956 107.2C211.373 107.2 211.673 107.15 211.856 107.05C212.056 106.933 212.156 106.758 212.156 106.525C212.156 106.225 212.048 105.85 211.831 105.4L210.206 101.9H206.881L205.856 104.425C205.573 105.125 205.431 105.658 205.431 106.025C205.431 106.442 205.573 106.742 205.856 106.925C206.156 107.108 206.615 107.2 207.231 107.2C207.315 107.2 207.356 107.25 207.356 107.35C207.356 107.45 207.315 107.5 207.231 107.5C206.981 107.5 206.64 107.483 206.206 107.45C205.74 107.417 205.306 107.4 204.906 107.4C204.49 107.4 203.998 107.417 203.431 107.45C202.931 107.483 202.531 107.5 202.231 107.5C202.148 107.5 202.106 107.45 202.106 107.35C202.106 107.25 202.148 107.2 202.231 107.2C202.748 107.2 203.156 107.125 203.456 106.975C203.773 106.825 204.056 106.55 204.306 106.15C204.573 105.733 204.89 105.083 205.256 104.2L208.906 95.425C208.94 95.3583 208.99 95.325 209.056 95.325C209.123 95.325 209.173 95.3583 209.206 95.425L213.206 104.075C213.64 104.992 213.99 105.667 214.256 106.1C214.523 106.517 214.79 106.808 215.056 106.975C215.34 107.125 215.698 107.2 216.131 107.2ZM207.106 101.375H209.956L208.431 98.1L207.106 101.375ZM218.797 97.825C218.797 97.325 218.755 96.9583 218.672 96.725C218.589 96.4917 218.43 96.3333 218.197 96.25C217.98 96.15 217.63 96.1 217.147 96.1C217.114 96.1 217.097 96.05 217.097 95.95C217.097 95.85 217.114 95.8 217.147 95.8L218.247 95.825C218.88 95.8583 219.372 95.875 219.722 95.875C220.139 95.875 220.647 95.8583 221.247 95.825L222.247 95.8C222.297 95.8 222.322 95.85 222.322 95.95C222.322 96.05 222.297 96.1 222.247 96.1C221.58 96.1 221.139 96.2167 220.922 96.45C220.722 96.6833 220.622 97.1583 220.622 97.875V105.775C220.622 107.025 220.514 108.033 220.297 108.8C220.08 109.567 219.714 110.2 219.197 110.7C218.68 111.2 217.939 111.642 216.972 112.025C216.939 112.042 216.897 112.008 216.847 111.925C216.814 111.842 216.822 111.792 216.872 111.775C217.489 111.425 217.964 110.833 218.297 110C218.63 109.167 218.797 108.15 218.797 106.95V97.825ZM236.81 107.2C236.893 107.2 236.935 107.25 236.935 107.35C236.935 107.45 236.893 107.5 236.81 107.5C236.493 107.5 236.002 107.483 235.335 107.45C234.635 107.417 234.135 107.4 233.835 107.4C233.585 107.4 233.21 107.417 232.71 107.45C232.243 107.483 231.885 107.5 231.635 107.5C231.568 107.5 231.535 107.45 231.535 107.35C231.535 107.25 231.568 107.2 231.635 107.2C232.052 107.2 232.352 107.15 232.535 107.05C232.735 106.933 232.835 106.758 232.835 106.525C232.835 106.225 232.727 105.85 232.51 105.4L230.885 101.9H227.56L226.535 104.425C226.252 105.125 226.11 105.658 226.11 106.025C226.11 106.442 226.252 106.742 226.535 106.925C226.835 107.108 227.293 107.2 227.91 107.2C227.993 107.2 228.035 107.25 228.035 107.35C228.035 107.45 227.993 107.5 227.91 107.5C227.66 107.5 227.318 107.483 226.885 107.45C226.418 107.417 225.985 107.4 225.585 107.4C225.168 107.4 224.677 107.417 224.11 107.45C223.61 107.483 223.21 107.5 222.91 107.5C222.827 107.5 222.785 107.45 222.785 107.35C222.785 107.25 222.827 107.2 222.91 107.2C223.427 107.2 223.835 107.125 224.135 106.975C224.452 106.825 224.735 106.55 224.985 106.15C225.252 105.733 225.568 105.083 225.935 104.2L229.585 95.425C229.618 95.3583 229.668 95.325 229.735 95.325C229.802 95.325 229.852 95.3583 229.885 95.425L233.885 104.075C234.318 104.992 234.668 105.667 234.935 106.1C235.202 106.517 235.468 106.808 235.735 106.975C236.018 107.125 236.377 107.2 236.81 107.2ZM227.785 101.375H230.635L229.11 98.1L227.785 101.375ZM250.601 107.2C250.651 107.2 250.676 107.25 250.676 107.35C250.676 107.45 250.651 107.5 250.601 107.5H247.301C247.034 107.5 246.534 107 245.801 106C245.067 105 244.201 103.625 243.201 101.875C242.851 101.925 242.501 101.95 242.151 101.95C241.801 101.95 241.534 101.942 241.351 101.925V105.475C241.351 105.992 241.392 106.367 241.476 106.6C241.559 106.833 241.717 106.992 241.951 107.075C242.184 107.158 242.567 107.2 243.101 107.2C243.151 107.2 243.176 107.25 243.176 107.35C243.176 107.45 243.151 107.5 243.101 107.5C242.634 107.5 242.267 107.492 242.001 107.475L240.401 107.45L238.851 107.475C238.567 107.492 238.176 107.5 237.676 107.5C237.642 107.5 237.626 107.45 237.626 107.35C237.626 107.25 237.642 107.2 237.676 107.2C238.209 107.2 238.592 107.158 238.826 107.075C239.076 106.992 239.242 106.833 239.326 106.6C239.426 106.35 239.476 105.975 239.476 105.475V97.825C239.476 97.325 239.426 96.9583 239.326 96.725C239.242 96.4917 239.076 96.3333 238.826 96.25C238.592 96.15 238.226 96.1 237.726 96.1C237.676 96.1 237.651 96.05 237.651 95.95C237.651 95.85 237.676 95.8 237.726 95.8L238.876 95.825C239.509 95.8583 240.017 95.875 240.401 95.875C240.717 95.875 241.001 95.8667 241.251 95.85C241.517 95.8333 241.742 95.8167 241.926 95.8C242.442 95.75 242.934 95.725 243.401 95.725C244.551 95.725 245.426 95.9333 246.026 96.35C246.642 96.7667 246.951 97.3667 246.951 98.15C246.951 98.8167 246.751 99.4333 246.351 100C245.967 100.55 245.434 101 244.751 101.35C245.667 102.867 246.442 104.042 247.076 104.875C247.726 105.708 248.326 106.308 248.876 106.675C249.426 107.025 250.001 107.2 250.601 107.2ZM241.351 101.45C241.717 101.483 242.042 101.5 242.326 101.5C243.326 101.5 244.017 101.275 244.401 100.825C244.801 100.375 245.001 99.7083 245.001 98.825C245.001 97.025 244.259 96.125 242.776 96.125C242.192 96.125 241.809 96.25 241.626 96.5C241.442 96.75 241.351 97.2083 241.351 97.875V101.45ZM257.178 107.6C256.728 107.6 256.211 107.575 255.628 107.525C255.428 107.508 255.178 107.492 254.878 107.475C254.578 107.458 254.236 107.45 253.853 107.45L252.303 107.475C252.019 107.492 251.628 107.5 251.128 107.5C251.094 107.5 251.078 107.45 251.078 107.35C251.078 107.25 251.094 107.2 251.128 107.2C251.678 107.2 252.078 107.158 252.328 107.075C252.578 106.992 252.744 106.833 252.828 106.6C252.911 106.35 252.953 105.975 252.953 105.475V97.825C252.953 97.325 252.911 96.9583 252.828 96.725C252.744 96.4917 252.578 96.3333 252.328 96.25C252.078 96.15 251.694 96.1 251.178 96.1C251.128 96.1 251.103 96.05 251.103 95.95C251.103 95.85 251.128 95.8 251.178 95.8L252.303 95.825C252.936 95.8583 253.453 95.875 253.853 95.875C254.369 95.875 254.886 95.85 255.403 95.8C256.069 95.7667 256.569 95.75 256.903 95.75C258.303 95.75 259.511 96 260.528 96.5C261.544 97 262.319 97.6917 262.853 98.575C263.386 99.4583 263.653 100.458 263.653 101.575C263.653 102.725 263.378 103.758 262.828 104.675C262.278 105.592 261.511 106.308 260.528 106.825C259.544 107.342 258.428 107.6 257.178 107.6ZM256.903 107.175C258.353 107.175 259.478 106.717 260.278 105.8C261.094 104.883 261.503 103.567 261.503 101.85C261.503 100.2 261.103 98.8417 260.303 97.775C259.503 96.6917 258.294 96.15 256.678 96.15C255.978 96.15 255.486 96.275 255.203 96.525C254.919 96.775 254.778 97.225 254.778 97.875V105.2C254.778 105.917 254.919 106.425 255.203 106.725C255.486 107.025 256.053 107.175 256.903 107.175ZM271.387 107.8C270.22 107.8 269.178 107.525 268.262 106.975C267.345 106.425 266.628 105.683 266.112 104.75C265.612 103.817 265.362 102.8 265.362 101.7C265.362 100.417 265.695 99.3083 266.362 98.375C267.028 97.425 267.878 96.7083 268.912 96.225C269.962 95.7417 271.028 95.5 272.112 95.5C273.278 95.5 274.312 95.7917 275.212 96.375C276.112 96.9417 276.803 97.6833 277.287 98.6C277.77 99.5167 278.012 100.475 278.012 101.475C278.012 102.592 277.712 103.642 277.112 104.625C276.512 105.592 275.703 106.367 274.687 106.95C273.687 107.517 272.587 107.8 271.387 107.8ZM272.012 107.275C273.195 107.275 274.137 106.817 274.837 105.9C275.553 104.983 275.912 103.708 275.912 102.075C275.912 100.975 275.728 99.9667 275.362 99.05C274.995 98.1333 274.462 97.4083 273.762 96.875C273.062 96.325 272.228 96.05 271.262 96.05C270.045 96.05 269.103 96.4833 268.437 97.35C267.77 98.2167 267.437 99.4417 267.437 101.025C267.437 102.192 267.628 103.25 268.012 104.2C268.395 105.15 268.928 105.9 269.612 106.45C270.312 107 271.112 107.275 272.012 107.275Z" fill="white"/>
<defs>
<linearGradient id="paint0_linear_450_47" x1="228.5" y1="156.5" x2="229.5" y2="79.5" gradientUnits="userSpaceOnUse">
<stop stop-color="#1B0F0F"/>
<stop offset="1" stop-opacity="0"/>
</linearGradient>
</defs>
</svg>
