<svg width="1594" height="425" viewBox="0 0 1594 425" fill="none" xmlns="http://www.w3.org/2000/svg">
<rect x="2" y="2" width="1590" height="421" rx="15" fill="#505765" stroke="#D9D9D9" stroke-width="4" stroke-dasharray="6 6"/>
<path d="M891.368 270.608V338H874.952V270.608H891.368ZM935.905 283.856C942.177 283.856 947.169 285.904 950.881 290C954.657 294.032 956.545 299.6 956.545 306.704V338H940.225V308.912C940.225 305.328 939.297 302.544 937.441 300.56C935.585 298.576 933.089 297.584 929.953 297.584C926.817 297.584 924.321 298.576 922.465 300.56C920.609 302.544 919.681 305.328 919.681 308.912V338H903.265V284.432H919.681V291.536C921.345 289.168 923.585 287.312 926.401 285.968C929.217 284.56 932.385 283.856 935.905 283.856ZM989.744 338.768C985.072 338.768 980.912 337.968 977.264 336.368C973.616 334.768 970.736 332.592 968.624 329.84C966.512 327.024 965.328 323.888 965.072 320.432H981.296C981.488 322.288 982.352 323.792 983.888 324.944C985.424 326.096 987.312 326.672 989.552 326.672C991.6 326.672 993.168 326.288 994.256 325.52C995.408 324.688 995.984 323.632 995.984 322.352C995.984 320.816 995.184 319.696 993.584 318.992C991.984 318.224 989.392 317.392 985.808 316.496C981.968 315.6 978.768 314.672 976.208 313.712C973.648 312.688 971.44 311.12 969.584 309.008C967.728 306.832 966.8 303.92 966.8 300.272C966.8 297.2 967.632 294.416 969.296 291.92C971.024 289.36 973.52 287.344 976.784 285.872C980.112 284.4 984.048 283.664 988.592 283.664C995.312 283.664 1000.59 285.328 1004.43 288.656C1008.34 291.984 1010.58 296.4 1011.15 301.904H995.984C995.728 300.048 994.896 298.576 993.488 297.488C992.144 296.4 990.352 295.856 988.112 295.856C986.192 295.856 984.72 296.24 983.696 297.008C982.672 297.712 982.16 298.704 982.16 299.984C982.16 301.52 982.96 302.672 984.56 303.44C986.224 304.208 988.784 304.976 992.24 305.744C996.208 306.768 999.44 307.792 1001.94 308.816C1004.43 309.776 1006.61 311.376 1008.46 313.616C1010.38 315.792 1011.38 318.736 1011.44 322.448C1011.44 325.584 1010.54 328.4 1008.75 330.896C1007.02 333.328 1004.5 335.248 1001.17 336.656C997.904 338.064 994.096 338.768 989.744 338.768ZM1071.98 310.352C1071.98 311.888 1071.88 313.488 1071.69 315.152H1034.54C1034.8 318.48 1035.85 321.04 1037.71 322.832C1039.63 324.56 1041.96 325.424 1044.72 325.424C1048.81 325.424 1051.66 323.696 1053.26 320.24H1070.73C1069.84 323.76 1068.2 326.928 1065.84 329.744C1063.53 332.56 1060.62 334.768 1057.1 336.368C1053.58 337.968 1049.64 338.768 1045.29 338.768C1040.04 338.768 1035.37 337.648 1031.28 335.408C1027.18 333.168 1023.98 329.968 1021.68 325.808C1019.37 321.648 1018.22 316.784 1018.22 311.216C1018.22 305.648 1019.34 300.784 1021.58 296.624C1023.88 292.464 1027.08 289.264 1031.18 287.024C1035.28 284.784 1039.98 283.664 1045.29 283.664C1050.48 283.664 1055.08 284.752 1059.12 286.928C1063.15 289.104 1066.28 292.208 1068.52 296.24C1070.83 300.272 1071.98 304.976 1071.98 310.352ZM1055.18 306.032C1055.18 303.216 1054.22 300.976 1052.3 299.312C1050.38 297.648 1047.98 296.816 1045.1 296.816C1042.35 296.816 1040.01 297.616 1038.09 299.216C1036.24 300.816 1035.08 303.088 1034.64 306.032H1055.18ZM1097.06 293.36C1098.98 290.416 1101.38 288.112 1104.26 286.448C1107.14 284.72 1110.34 283.856 1113.86 283.856V301.232H1109.34C1105.25 301.232 1102.18 302.128 1100.13 303.92C1098.08 305.648 1097.06 308.72 1097.06 313.136V338H1080.64V284.432H1097.06V293.36ZM1151.56 324.08V338H1143.21C1137.25 338 1132.61 336.56 1129.29 333.68C1125.96 330.736 1124.29 325.968 1124.29 319.376V298.064H1117.77V284.432H1124.29V271.376H1140.71V284.432H1151.46V298.064H1140.71V319.568C1140.71 321.168 1141.09 322.32 1141.86 323.024C1142.63 323.728 1143.91 324.08 1145.7 324.08H1151.56ZM1157.44 311.12C1157.44 305.616 1158.46 300.784 1160.51 296.624C1162.62 292.464 1165.47 289.264 1169.05 287.024C1172.64 284.784 1176.64 283.664 1181.05 283.664C1184.83 283.664 1188.13 284.432 1190.94 285.968C1193.82 287.504 1196.03 289.52 1197.57 292.016V284.432H1213.98V338H1197.57V330.416C1195.97 332.912 1193.73 334.928 1190.85 336.464C1188.03 338 1184.73 338.768 1180.96 338.768C1176.61 338.768 1172.64 337.648 1169.05 335.408C1165.47 333.104 1162.62 329.872 1160.51 325.712C1158.46 321.488 1157.44 316.624 1157.44 311.12ZM1197.57 311.216C1197.57 307.12 1196.41 303.888 1194.11 301.52C1191.87 299.152 1189.12 297.968 1185.85 297.968C1182.59 297.968 1179.81 299.152 1177.5 301.52C1175.26 303.824 1174.14 307.024 1174.14 311.12C1174.14 315.216 1175.26 318.48 1177.5 320.912C1179.81 323.28 1182.59 324.464 1185.85 324.464C1189.12 324.464 1191.87 323.28 1194.11 320.912C1196.41 318.544 1197.57 315.312 1197.57 311.216ZM1242.27 293.36C1244.19 290.416 1246.59 288.112 1249.47 286.448C1252.35 284.72 1255.55 283.856 1259.07 283.856V301.232H1254.56C1250.47 301.232 1247.39 302.128 1245.35 303.92C1243.3 305.648 1242.27 308.72 1242.27 313.136V338H1225.86V284.432H1242.27V293.36ZM1303.68 266.96V338H1287.26V266.96H1303.68ZM1339.96 338.768C1334.71 338.768 1329.98 337.648 1325.75 335.408C1321.59 333.168 1318.3 329.968 1315.87 325.808C1313.5 321.648 1312.31 316.784 1312.31 311.216C1312.31 305.712 1313.53 300.88 1315.96 296.72C1318.39 292.496 1321.72 289.264 1325.95 287.024C1330.17 284.784 1334.91 283.664 1340.15 283.664C1345.4 283.664 1350.14 284.784 1354.36 287.024C1358.59 289.264 1361.91 292.496 1364.35 296.72C1366.78 300.88 1367.99 305.712 1367.99 311.216C1367.99 316.72 1366.75 321.584 1364.25 325.808C1361.82 329.968 1358.46 333.168 1354.17 335.408C1349.95 337.648 1345.21 338.768 1339.96 338.768ZM1339.96 324.56C1343.1 324.56 1345.75 323.408 1347.93 321.104C1350.17 318.8 1351.29 315.504 1351.29 311.216C1351.29 306.928 1350.2 303.632 1348.03 301.328C1345.91 299.024 1343.29 297.872 1340.15 297.872C1336.95 297.872 1334.3 299.024 1332.19 301.328C1330.07 303.568 1329.02 306.864 1329.02 311.216C1329.02 315.504 1330.04 318.8 1332.09 321.104C1334.2 323.408 1336.83 324.56 1339.96 324.56ZM1397.05 283.664C1400.83 283.664 1404.13 284.432 1406.94 285.968C1409.82 287.504 1412.03 289.52 1413.57 292.016V284.432H1429.98V337.904C1429.98 342.832 1428.99 347.28 1427.01 351.248C1425.09 355.28 1422.11 358.48 1418.08 360.848C1414.11 363.216 1409.15 364.4 1403.2 364.4C1395.26 364.4 1388.83 362.512 1383.9 358.736C1378.97 355.024 1376.16 349.968 1375.45 343.568H1391.68C1392.19 345.616 1393.41 347.216 1395.33 348.368C1397.25 349.584 1399.61 350.192 1402.43 350.192C1405.82 350.192 1408.51 349.2 1410.49 347.216C1412.54 345.296 1413.57 342.192 1413.57 337.904V330.32C1411.97 332.816 1409.76 334.864 1406.94 336.464C1404.13 338 1400.83 338.768 1397.05 338.768C1392.64 338.768 1388.64 337.648 1385.05 335.408C1381.47 333.104 1378.62 329.872 1376.51 325.712C1374.46 321.488 1373.44 316.624 1373.44 311.12C1373.44 305.616 1374.46 300.784 1376.51 296.624C1378.62 292.464 1381.47 289.264 1385.05 287.024C1388.64 284.784 1392.64 283.664 1397.05 283.664ZM1413.57 311.216C1413.57 307.12 1412.41 303.888 1410.11 301.52C1407.87 299.152 1405.12 297.968 1401.85 297.968C1398.59 297.968 1395.81 299.152 1393.5 301.52C1391.26 303.824 1390.14 307.024 1390.14 311.12C1390.14 315.216 1391.26 318.48 1393.5 320.912C1395.81 323.28 1398.59 324.464 1401.85 324.464C1405.12 324.464 1407.87 323.28 1410.11 320.912C1412.41 318.544 1413.57 315.312 1413.57 311.216ZM1466.24 338.768C1460.99 338.768 1456.26 337.648 1452.03 335.408C1447.87 333.168 1444.58 329.968 1442.15 325.808C1439.78 321.648 1438.59 316.784 1438.59 311.216C1438.59 305.712 1439.81 300.88 1442.24 296.72C1444.67 292.496 1448 289.264 1452.23 287.024C1456.45 284.784 1461.19 283.664 1466.43 283.664C1471.68 283.664 1476.42 284.784 1480.64 287.024C1484.87 289.264 1488.19 292.496 1490.63 296.72C1493.06 300.88 1494.27 305.712 1494.27 311.216C1494.27 316.72 1493.03 321.584 1490.53 325.808C1488.1 329.968 1484.74 333.168 1480.45 335.408C1476.23 337.648 1471.49 338.768 1466.24 338.768ZM1466.24 324.56C1469.38 324.56 1472.03 323.408 1474.21 321.104C1476.45 318.8 1477.57 315.504 1477.57 311.216C1477.57 306.928 1476.48 303.632 1474.31 301.328C1472.19 299.024 1469.57 297.872 1466.43 297.872C1463.23 297.872 1460.58 299.024 1458.47 301.328C1456.35 303.568 1455.3 306.864 1455.3 311.216C1455.3 315.504 1456.32 318.8 1458.37 321.104C1460.48 323.408 1463.11 324.56 1466.24 324.56Z" fill="white"/>
<g clip-path="url(#clip0_302_8)">
<path d="M192.48 169.667C196.965 169.667 200.605 173.307 200.605 177.792C200.605 182.277 196.965 185.917 192.48 185.917C187.995 185.917 184.355 182.277 184.355 177.792C184.355 173.307 187.995 169.667 192.48 169.667ZM197.897 158.833C197.897 155.794 200.107 152.198 202.923 150.643C211.048 146.169 215.42 136.977 213.805 127.769C212.273 119.032 205.101 111.854 196.358 110.322C189.956 109.217 183.467 110.928 178.543 115.056C173.63 119.189 170.808 125.234 170.808 131.647C170.808 134.642 173.235 137.064 176.225 137.064C179.215 137.064 181.641 134.642 181.641 131.647C181.641 128.44 183.05 125.418 185.509 123.349C188.006 121.258 191.207 120.413 194.484 120.992C198.747 121.74 202.382 125.38 203.129 129.637C203.958 134.355 201.824 138.873 197.691 141.148C191.429 144.598 187.058 151.867 187.058 158.828C187.058 161.823 189.485 164.244 192.475 164.244C195.465 164.244 197.891 161.823 197.891 158.828L197.897 158.833ZM258 185.917V149.842C258 114.747 231.437 85.4591 197.528 83.1516C178.705 81.9057 160.289 88.7741 147.007 102.072C133.725 115.375 126.857 133.797 128.163 152.626C130.546 187.043 160.944 213 198.872 213H230.922C245.856 213 258 200.85 258 185.917ZM196.797 93.9632C225.045 95.8807 247.167 120.424 247.167 149.836V185.911C247.167 194.87 239.876 202.161 230.917 202.161H198.866C166.177 202.161 140.984 181.014 138.963 151.873C137.875 136.17 143.595 120.808 154.666 109.726C164.86 99.5153 178.689 93.8332 193.081 93.8332C194.316 93.8332 195.557 93.8766 196.792 93.9578L196.797 93.9632Z" fill="#D9D9D9"/>
</g>
<defs>
<clipPath id="clip0_302_8">
<rect width="130" height="130" fill="white" transform="translate(128 83)"/>
</clipPath>
</defs>
</svg>
