<svg width="71" height="68" viewBox="0 0 71 68" fill="none" xmlns="http://www.w3.org/2000/svg">
<path d="M2.28969 13.1425C2.16967 10.6774 3.86627 8.49353 6.28449 8.00028L34.5007 2.245C35.1601 2.11051 35.8399 2.11051 36.4993 2.245L64.5696 7.97052C67.033 8.47297 68.7401 10.7264 68.557 13.2338L66.1135 46.6944C65.9887 48.4029 64.998 49.9286 63.4879 50.7376L37.8086 64.4944C36.3544 65.2734 34.6095 65.285 33.1451 64.5253L6.60852 50.7596C5.02852 49.94 4.00337 48.3422 3.91682 46.5644L2.28969 13.1425Z" fill="#8F100F"/>
<path d="M2.28969 13.1425C2.16967 10.6774 3.86627 8.49353 6.28449 8.00028L34.5007 2.245C35.1601 2.11051 35.8399 2.11051 36.4993 2.245L64.5696 7.97052C67.033 8.47297 68.7401 10.7264 68.557 13.2338L66.1135 46.6944C65.9887 48.4029 64.998 49.9286 63.4879 50.7376L37.8086 64.4944C36.3544 65.2734 34.6095 65.285 33.1451 64.5253L6.60852 50.7596C5.02852 49.94 4.00337 48.3422 3.91682 46.5644L2.28969 13.1425Z" fill="url(#paint0_linear_459_24)"/>
<path d="M2.28969 13.1425C2.16967 10.6774 3.86627 8.49353 6.28449 8.00028L34.5007 2.245C35.1601 2.11051 35.8399 2.11051 36.4993 2.245L64.5696 7.97052C67.033 8.47297 68.7401 10.7264 68.557 13.2338L66.1135 46.6944C65.9887 48.4029 64.998 49.9286 63.4879 50.7376L37.8086 64.4944C36.3544 65.2734 34.6095 65.285 33.1451 64.5253L6.60852 50.7596C5.02852 49.94 4.00337 48.3422 3.91682 46.5644L2.28969 13.1425Z" stroke="black" stroke-width="4"/>
<path d="M28.525 40.25C26.7083 40.25 25.0833 39.8333 23.65 39C22.2167 38.1667 21.0917 37.025 20.275 35.575C19.475 34.1083 19.075 32.4667 19.075 30.65C19.075 28.8833 19.4833 27.2917 20.3 25.875C21.1167 24.4583 22.25 23.35 23.7 22.55C25.15 21.75 26.7833 21.35 28.6 21.35C29.5833 21.35 30.4667 21.4417 31.25 21.625C32.05 21.7917 32.7 21.9917 33.2 22.225C33.7 22.4417 34.0417 22.6333 34.225 22.8L33.125 25.15C32.0917 24.3167 30.5667 23.9 28.55 23.9C27.2167 23.9 26.0583 24.1917 25.075 24.775C24.0917 25.3583 23.3417 26.15 22.825 27.15C22.3083 28.15 22.05 29.2667 22.05 30.5C22.05 31.9 22.325 33.15 22.875 34.25C23.4417 35.35 24.2167 36.2083 25.2 36.825C26.2 37.425 27.325 37.725 28.575 37.725C29.3583 37.725 30.1083 37.6333 30.825 37.45C31.5417 37.25 32.15 36.9417 32.65 36.525V32.975H28.875V30.4H35.425V37.6C34.825 38.35 33.9167 38.9833 32.7 39.5C31.5 40 30.1083 40.25 28.525 40.25ZM42.7785 40.25C41.7785 40.25 40.7868 40.075 39.8035 39.725C38.8202 39.375 38.1118 38.9833 37.6785 38.55L39.0035 36.175C39.3535 36.4917 39.8952 36.825 40.6285 37.175C41.3785 37.5083 42.0952 37.675 42.7785 37.675C43.6618 37.675 44.3785 37.4667 44.9285 37.05C45.4952 36.6333 45.7785 36.0583 45.7785 35.325C45.7785 34.7583 45.6285 34.2667 45.3285 33.85C45.0285 33.4333 44.6618 33.0917 44.2285 32.825C43.7952 32.5417 43.1785 32.2 42.3785 31.8C41.4285 31.3333 40.7785 30.9833 40.4285 30.75C38.8118 29.6667 38.0035 28.1667 38.0035 26.25C38.0035 24.6667 38.5285 23.4583 39.5785 22.625C40.6285 21.775 41.9535 21.35 43.5535 21.35C45.2702 21.35 46.7285 21.8417 47.9285 22.825L46.6035 25.1C46.2868 24.7667 45.8368 24.4833 45.2535 24.25C44.6868 24 44.0785 23.875 43.4285 23.875C42.5952 23.875 41.9368 24.0667 41.4535 24.45C40.9868 24.8167 40.7535 25.3667 40.7535 26.1C40.7535 26.6167 40.9035 27.0833 41.2035 27.5C41.5035 27.9 41.8785 28.25 42.3285 28.55C42.7952 28.85 43.4202 29.2167 44.2035 29.65C44.9535 30.0667 45.5285 30.4 45.9285 30.65C46.3285 30.8833 46.7035 31.1667 47.0535 31.5C47.5368 31.9333 47.9285 32.45 48.2285 33.05C48.5285 33.65 48.6785 34.3083 48.6785 35.025C48.6785 36.1417 48.4202 37.0917 47.9035 37.875C47.4035 38.6583 46.7035 39.25 45.8035 39.65C44.9202 40.05 43.9118 40.25 42.7785 40.25Z" fill="#F5F7F9"/>
<defs>
<linearGradient id="paint0_linear_459_24" x1="34.5181" y1="79.7154" x2="36.2326" y2="40.5628" gradientUnits="userSpaceOnUse">
<stop stop-color="#1B0F0F"/>
<stop offset="1" stop-opacity="0"/>
</linearGradient>
</defs>
</svg>
