<svg width="35" height="35" viewBox="0 0 35 35" fill="none" xmlns="http://www.w3.org/2000/svg">
<path d="M14.5833 11.6667V10.2083H2.91667V21.875C2.91667 24.2871 4.87958 26.25 7.29167 26.25H14.5833V23.3333C14.5833 20.9213 16.5463 18.9583 18.9583 18.9583H22.7296C23.5083 18.9583 24.2404 19.2617 24.7917 19.8129L26.8538 21.875H30.625C33.0371 21.875 35 23.8379 35 26.25V30.625C35 33.0371 33.0371 35 30.625 35H18.9583C16.5463 35 14.5833 33.0371 14.5833 30.625V29.1667H7.29167C3.27104 29.1667 0 25.8956 0 21.875V1.45833C0.00875 -0.449167 2.90938 -0.447708 2.91667 1.45833V7.29167H14.5833V4.375C14.5833 1.96292 16.5463 0 18.9583 0H22.7296C23.5083 0 24.2404 0.303333 24.7917 0.854583L26.8538 2.91667H30.625C33.0371 2.91667 35 4.87958 35 7.29167V11.6667C35 14.0788 33.0371 16.0417 30.625 16.0417H18.9583C16.5463 16.0417 14.5833 14.0788 14.5833 11.6667Z" fill="white"/>
</svg>
