<svg width="24" height="24" viewBox="0 0 24 24" fill="none" xmlns="http://www.w3.org/2000/svg">
<g clip-path="url(#clip0_204_4)">
<path d="M16.207 7.793C16.597 8.183 16.597 8.817 16.207 9.207L15.164 10.25L13.75 8.836L14.793 7.793C15.184 7.402 15.816 7.402 16.207 7.793ZM12.336 10.25L8 14.586V16H9.414L13.75 11.664L12.336 10.25ZM24 12C24 18.617 18.617 24 12 24C5.383 24 0 18.617 0 12C0 5.383 5.383 0 12 0C18.617 0 24 5.383 24 12ZM17.621 6.379C16.451 5.209 14.549 5.209 13.379 6.379L6 13.758V18H10.242L17.621 10.621C18.791 9.451 18.791 7.549 17.621 6.379Z" fill="#00458E"/>
</g>
<defs>
<clipPath id="clip0_204_4">
<rect width="24" height="24" fill="white"/>
</clipPath>
</defs>
</svg>
