<svg width="512" height="512" viewBox="0 0 512 512" fill="none" xmlns="http://www.w3.org/2000/svg">
<g clip-path="url(#clip0_112_6)">
<path d="M25.0027 407.872C8.99846 423.871 0.00483306 445.573 0 468.203L0 512H43.7973C66.4273 511.995 88.1286 503.001 104.128 486.997L388.779 202.347L309.653 123.221L25.0027 407.872Z" fill="#00458E"/>
<path d="M493.76 18.24C488.565 13.0397 482.396 8.91424 475.606 6.09954C468.816 3.28485 461.537 1.83609 454.187 1.83609C446.836 1.83609 439.558 3.28485 432.768 6.09954C425.977 8.91424 419.808 13.0397 414.614 18.24L339.819 93.056L418.944 172.181L493.76 97.3867C498.961 92.1918 503.086 86.0228 505.901 79.2326C508.715 72.4423 510.164 65.1638 510.164 57.8133C510.164 50.4628 508.715 43.1843 505.901 36.3941C503.086 29.6038 498.961 23.4349 493.76 18.24Z" fill="#00458E"/>
</g>
<defs>
<clipPath id="clip0_112_6">
<rect width="512" height="512" fill="white"/>
</clipPath>
</defs>
</svg>
