<svg width="24" height="24" viewBox="0 0 24 24" fill="none" xmlns="http://www.w3.org/2000/svg">
<g clip-path="url(#clip0_329_2)">
<path d="M1 2.5C1 1.119 2.119 0 3.5 0C4.881 0 6 1.119 6 2.5C6 3.881 4.881 5 3.5 5C2.119 5 1 3.881 1 2.5ZM23.226 19.244L15.935 20.931C15.978 21.114 16.001 21.304 16.001 21.5C16.001 23.098 14.502 24.345 12.834 23.914C11.985 23.694 11.293 22.995 11.081 22.144C10.719 20.692 11.625 19.376 12.923 19.068L11.554 13H8.619C7.861 13 7.169 12.572 6.83 11.894L5.461 9.155C5.344 8.92 5.187 8.715 5.002 8.545V16.232L5.548 16.561C6.45 17.104 7.002 18.079 7.002 19.132V23C7.002 23.553 6.554 24 6.002 24C5.45 24 5.002 23.553 5.002 23V19.131C5.002 18.78 4.818 18.456 4.518 18.275L1.754 16.611C0.715 15.987 0.074 14.871 0.057 13.661L0 9.603C0 7.027 2.69 5.091 5.389 6.443C6.254 6.876 6.928 7.619 7.361 8.485L8.618 11H11.102L10.024 6.22C9.902 5.682 10.241 5.147 10.779 5.025C11.319 4.903 11.853 5.242 11.975 5.781L14.979 19.099L22.774 17.295C23.314 17.169 23.849 17.506 23.974 18.044C24.099 18.582 23.765 19.119 23.226 19.244ZM2 19C1.448 19 1 19.447 1 20V23C1 23.553 1.448 24 2 24C2.552 24 3 23.553 3 23V20C3 19.447 2.552 19 2 19ZM15.067 11.749C14.751 10.398 15.59 9.04 16.939 8.721L19.714 8.061C20.372 7.905 21.049 8.014 21.623 8.37C22.197 8.724 22.598 9.282 22.752 9.938L23.42 12.79C23.736 14.141 22.897 15.499 21.548 15.818L18.773 16.478C18.578 16.525 18.381 16.547 18.186 16.547C17.723 16.547 17.268 16.419 16.865 16.169C16.291 15.815 15.89 15.257 15.736 14.6L15.067 11.749Z" fill="white"/>
</g>
<defs>
<clipPath id="clip0_329_2">
<rect width="24" height="24" fill="white"/>
</clipPath>
</defs>
</svg>
