<svg width="60" height="60" viewBox="0 0 60 60" fill="none" xmlns="http://www.w3.org/2000/svg">
<rect width="60" height="60" rx="20" fill="#090D3E"/>
<path d="M39.375 26.875H33.125V20.625C33.125 19.7962 32.7958 19.0013 32.2097 18.4153C31.6237 17.8292 30.8288 17.5 30 17.5C29.1712 17.5 28.3763 17.8292 27.7903 18.4153C27.2042 19.0013 26.875 19.7962 26.875 20.625V26.875H20.625C19.7962 26.875 19.0013 27.2042 18.4153 27.7903C17.8292 28.3763 17.5 29.1712 17.5 30C17.5 30.8288 17.8292 31.6237 18.4153 32.2097C19.0013 32.7958 19.7962 33.125 20.625 33.125H26.875V39.375C26.875 40.2038 27.2042 40.9987 27.7903 41.5847C28.3763 42.1708 29.1712 42.5 30 42.5C30.8288 42.5 31.6237 42.1708 32.2097 41.5847C32.7958 40.9987 33.125 40.2038 33.125 39.375V33.125H39.375C40.2038 33.125 40.9987 32.7958 41.5847 32.2097C42.1708 31.6237 42.5 30.8288 42.5 30C42.5 29.1712 42.1708 28.3763 41.5847 27.7903C40.9987 27.2042 40.2038 26.875 39.375 26.875Z" fill="white"/>
</svg>
