<svg width="35" height="35" viewBox="0 0 35 35" fill="none" xmlns="http://www.w3.org/2000/svg">
<g clip-path="url(#clip0_15_169)">
<path d="M34.5728 32.5106L25.868 23.8058C28.2401 20.9046 29.4064 17.2026 29.1257 13.4656C28.8449 9.72857 27.1385 6.24243 24.3594 3.72825C21.5804 1.21406 17.9413 -0.135795 14.1949 -0.0421235C10.4486 0.0515479 6.88149 1.58158 4.23157 4.23151C1.58164 6.88143 0.0516089 10.4485 -0.0420625 14.1949C-0.135734 17.9413 1.21413 21.5803 3.72831 24.3594C6.24249 27.1384 9.72863 28.8448 13.4657 29.1256C17.2027 29.4064 20.9047 28.2401 23.8059 25.8679L32.5107 34.5727C32.7857 34.8383 33.1541 34.9853 33.5365 34.982C33.9188 34.9787 34.2846 34.8253 34.555 34.5549C34.8254 34.2845 34.9787 33.9188 34.9821 33.5364C34.9854 33.154 34.8384 32.7857 34.5728 32.5106ZM14.5834 26.25C12.2759 26.25 10.0203 25.5657 8.10173 24.2838C6.18315 23.0018 4.68781 21.1798 3.80479 19.048C2.92176 16.9162 2.69073 14.5704 3.14089 12.3073C3.59105 10.0442 4.70219 7.96535 6.3338 6.33374C7.96541 4.70213 10.0442 3.59099 12.3073 3.14082C14.5704 2.69066 16.9162 2.9217 19.048 3.80473C21.1798 4.68775 23.0019 6.18309 24.2839 8.10167C25.5658 10.0202 26.25 12.2759 26.25 14.5833C26.2466 17.6764 25.0163 20.6419 22.8291 22.8291C20.642 25.0162 17.6765 26.2465 14.5834 26.25Z" fill="white"/>
</g>
<defs>
<clipPath id="clip0_15_169">
<rect width="35" height="35" fill="white"/>
</clipPath>
</defs>
</svg>
