<svg width="35" height="35" viewBox="0 0 35 35" fill="none" xmlns="http://www.w3.org/2000/svg">
<path d="M2.34359 26.25C3.54985 28.3436 6.22496 29.0629 8.31854 27.8566C8.31997 27.8558 8.32134 27.8549 8.32277 27.8541L8.97171 27.4793C10.1967 28.5274 11.6048 29.3402 13.125 29.8768V30.625C13.125 33.0412 15.0838 35 17.5 35C19.9163 35 21.875 33.0412 21.875 30.625V29.8769C23.3955 29.3394 24.8036 28.5256 26.0283 27.4764L26.6802 27.8527C28.7743 29.0608 31.4513 28.3426 32.6594 26.2485C33.8675 24.1544 33.1493 21.4774 31.0552 20.2693L30.4077 19.896C30.6992 18.31 30.6992 16.6841 30.4077 15.0981L31.0552 14.7247C33.1493 13.5166 33.8675 10.8397 32.6594 8.74556C31.4513 6.6515 28.7743 5.93325 26.6802 7.14137L26.0313 7.51618C24.805 6.46939 23.396 5.65811 21.875 5.12313V4.375C21.875 1.95877 19.9163 0 17.5 0C15.0838 0 13.125 1.95877 13.125 4.375V5.12313C11.6046 5.66063 10.1964 6.47438 8.97171 7.52356L8.31983 7.14588C6.22571 5.9377 3.54876 6.65595 2.34065 8.75C1.13253 10.8441 1.85071 13.5211 3.94484 14.7292L4.59234 15.1025C4.30085 16.6885 4.30085 18.3144 4.59234 19.9004L3.94484 20.2737C1.85652 21.4851 1.14067 24.1568 2.34359 26.25ZM17.5 11.6667C20.7217 11.6667 23.3333 14.2784 23.3333 17.5C23.3333 20.7216 20.7217 23.3333 17.5 23.3333C14.2784 23.3333 11.6667 20.7216 11.6667 17.5C11.6667 14.2784 14.2784 11.6667 17.5 11.6667Z" fill="white"/>
</svg>
