<svg width="512" height="512" viewBox="0 0 512 512" fill="none" xmlns="http://www.w3.org/2000/svg">
<g clip-path="url(#clip0_94_2)">
<mask id="mask0_94_2" style="mask-type:luminance" maskUnits="userSpaceOnUse" x="0" y="0" width="512" height="512">
<path d="M512 0H0V512H512V0Z" fill="white"/>
</mask>
<g mask="url(#mask0_94_2)">
<path d="M493.227 215.893L378.027 334.933C373.76 339.2 368.213 341.333 362.667 341.333C357.12 341.333 352 339.413 347.733 335.36C339.2 327.253 338.987 313.6 347.307 305.28L456.96 192.213H277.333C242.133 192.213 213.333 221.013 213.333 256.213V362.88C213.333 374.613 203.733 384.213 192 384.213C180.267 384.213 170.667 374.613 170.667 362.88V256.213C170.667 197.333 218.453 149.547 277.333 149.547H456.96L347.307 36.2667C339.2 27.7333 339.2 14.2933 347.733 6.18666C356.267 -1.92001 369.707 -1.92001 377.813 6.61333L493.227 125.867C517.973 150.613 517.973 191.147 493.013 216.107L493.227 215.893ZM318.08 365.867C310.187 358.187 278.187 315.733 256 285.867C256 285.867 256 328.533 256 360.107C256 391.68 235.093 419.413 204.8 425.387C163.84 433.28 128 402.133 128 362.667V256C128 214.187 145.28 176.427 173.013 149.333H106.667C47.7867 149.333 0 197.12 0 256V405.333C0 464.213 47.7867 512 106.667 512H256C314.88 512 362.667 464.213 362.667 405.333V384C346.027 384 330.027 377.6 318.08 365.867Z" fill="#009EF7"/>
</g>
</g>
<defs>
<clipPath id="clip0_94_2">
<rect width="512" height="512" fill="white"/>
</clipPath>
</defs>
</svg>
