<svg width="35" height="35" viewBox="0 0 35 35" fill="none" xmlns="http://www.w3.org/2000/svg">
<g clip-path="url(#clip0_28_109)">
<path d="M35 13.125C35 11.9647 34.5391 10.8519 33.7186 10.0314C32.8981 9.21094 31.7853 8.75 30.625 8.75H26.25C26.25 6.42936 25.3281 4.20376 23.6872 2.56282C22.0462 0.921872 19.8206 0 17.5 0C15.1794 0 12.9538 0.921872 11.3128 2.56282C9.67187 4.20376 8.75 6.42936 8.75 8.75H4.375C3.21468 8.75 2.10188 9.21094 1.28141 10.0314C0.460936 10.8519 0 11.9647 0 13.125L0 27.7083C0.00231563 29.6415 0.771286 31.4948 2.13824 32.8618C3.50519 34.2287 5.35851 34.9977 7.29167 35H27.7083C29.6415 34.9977 31.4948 34.2287 32.8618 32.8618C34.2287 31.4948 34.9977 29.6415 35 27.7083V13.125ZM11.6667 8.75C11.6667 7.2029 12.2812 5.71917 13.3752 4.62521C14.4692 3.53125 15.9529 2.91667 17.5 2.91667C19.0471 2.91667 20.5308 3.53125 21.6248 4.62521C22.7188 5.71917 23.3333 7.2029 23.3333 8.75H11.6667Z" fill="#090D3E"/>
</g>
<defs>
<clipPath id="clip0_28_109">
<rect width="35" height="35" fill="white"/>
</clipPath>
</defs>
</svg>
