<svg width="20" height="20" viewBox="0 0 20 20" fill="none" xmlns="http://www.w3.org/2000/svg">
<g clip-path="url(#clip0_303_399)">
<path d="M20 5.83333L18.1683 0H14.1667V4.16667H12.5V0H7.5V4.16667H5.83333V0H1.83167L0.02 5.6525L0 6.66667C0 7.50417 0.320833 8.26167 0.833333 8.84833V17.5C0.833333 18.8783 1.955 20 3.33333 20H10C11.3783 20 12.5 18.8783 12.5 17.5V9.53167C12.81 9.35083 13.0975 9.13667 13.3333 8.86917C13.9442 9.5625 14.8392 10 15.8333 10H16.6667C16.9558 10 17.2317 9.95167 17.5 9.88167V20H19.1667V8.84833C19.6792 8.2625 20 7.505 20 6.66667V5.83333ZM10.8333 14.1667H2.5V9.88167C2.76833 9.95167 3.04417 10 3.33333 10H4.16667C5.16667 10 6.055 9.54833 6.66667 8.84833C7.27833 9.54833 8.16667 10 9.16667 10H10.8333V14.1667Z" fill="#505765"/>
</g>
<defs>
<clipPath id="clip0_303_399">
<rect width="20" height="20" fill="white"/>
</clipPath>
</defs>
</svg>
