<svg width="24" height="24" viewBox="0 0 24 24" fill="none" xmlns="http://www.w3.org/2000/svg">
<g clip-path="url(#clip0_410_2)">
<path d="M0.527008 1.83916L1.84601 0.520156C2.41401 -0.0478436 3.29301 -0.163844 3.98901 0.238156L7.82101 2.44916C8.55401 2.87216 9.00601 3.65416 9.00601 4.50016V7.58616L13.732 12.3122C14.847 11.7872 16.214 11.9732 17.136 12.8922L23.025 18.7642C24.136 19.8722 24.35 21.6802 23.354 22.8932C22.209 24.2882 20.142 24.3652 18.896 23.1222L12.886 17.1292C11.96 16.2062 11.777 14.8342 12.312 13.7202L7.59201 9.00016H4.50601C3.66001 9.00016 2.87701 8.54816 2.45501 7.81516L0.245008 3.98216C-0.155992 3.28616 -0.0409922 2.40716 0.527008 1.83916ZM11.006 4.50016V6.75816L14.321 10.0722C15.845 9.86016 17.425 10.3552 18.548 11.4752L20.756 13.6772C22.643 12.3582 23.92 10.1992 24.005 7.79616C24.033 7.00216 23.94 6.22716 23.726 5.47916C23.595 5.02216 22.6 4.29916 21.78 5.11916C20.96 5.93916 18.464 8.43516 18.464 8.43516C17.677 9.22216 16.39 9.19916 15.611 8.39916C14.812 7.62016 14.787 6.33216 15.574 5.54516C15.574 5.54516 18.07 3.04916 18.89 2.22916C19.71 1.40916 18.987 0.414156 18.53 0.283156C17.782 0.0691564 17.007 -0.0248436 16.213 0.00415641C14.002 0.0831564 12 1.17216 10.666 2.81516C10.886 3.34116 11.006 3.91316 11.006 4.50016ZM10.068 14.3042L7.77501 12.0112L0.859008 18.9062C-0.302992 20.0692 -0.295992 21.9652 0.852008 23.1372C2.02401 24.2862 3.92001 24.2932 5.08301 23.1312L10.698 17.5322C10.13 16.5582 9.90601 15.4192 10.068 14.3042Z" fill="white"/>
</g>
<defs>
<clipPath id="clip0_410_2">
<rect width="24" height="24" fill="white"/>
</clipPath>
</defs>
</svg>
