<svg width="25" height="25" viewBox="0 0 25 25" fill="none" xmlns="http://www.w3.org/2000/svg">
<g clip-path="url(#clip0_303_199)">
<path d="M12.5 0C5.60729 0 0 5.60729 0 12.5C0.628125 29.0604 24.375 29.0562 25 12.5C25 5.60729 19.3927 0 12.5 0ZM13.5417 17.7083V18.75C13.5365 20.1125 11.4635 20.1115 11.4583 18.75V17.7083H11.1792C10.0677 17.7083 9.03021 17.1104 8.47292 16.1469C8.18437 15.6479 8.35521 15.0115 8.85208 14.724C9.35104 14.4333 9.98854 14.6062 10.275 15.1031C10.4615 15.426 10.8073 15.625 11.1781 15.625H13.5406C14.5792 15.6927 15.0437 14.0104 13.9115 13.7917L10.7437 13.2635C7.09583 12.5875 7.88125 7.27083 11.4573 7.29167V6.25C11.4635 4.8875 13.5354 4.88854 13.5406 6.25V7.29167H13.8198C14.9312 7.29167 15.9687 7.89062 16.526 8.85417C16.8146 9.35208 16.6437 9.98854 16.1469 10.2771C15.6469 10.5656 15.0104 10.3948 14.724 9.89688C14.5375 9.575 14.1917 9.37604 13.8208 9.37604H11.4583C10.4198 9.30833 9.95625 10.9906 11.0875 11.2094L14.2552 11.7375C17.9031 12.4135 17.1177 17.7292 13.5417 17.7083Z" fill="#505765"/>
</g>
<defs>
<clipPath id="clip0_303_199">
<rect width="25" height="25" fill="white"/>
</clipPath>
</defs>
</svg>
