<svg width="41" height="40" viewBox="0 0 41 40" fill="none" xmlns="http://www.w3.org/2000/svg">
<g clip-path="url(#clip0_15_84)">
<path d="M20.4878 28.3333C19.1578 28.3333 17.8577 27.9423 16.7518 27.2098C15.646 26.4773 14.7841 25.4361 14.2751 24.2179C13.7661 22.9997 13.6329 21.6593 13.8924 20.3661C14.1519 19.0729 14.7923 17.885 15.7328 16.9526C16.6733 16.0203 17.8715 15.3853 19.1759 15.1281C20.4804 14.8709 21.8325 15.0029 23.0612 15.5075C24.29 16.0121 25.3402 16.8665 26.0791 17.9629C26.8181 19.0592 27.2124 20.3481 27.2124 21.6667C27.2124 23.4348 26.504 25.1305 25.2429 26.3807C23.9817 27.631 22.2713 28.3333 20.4878 28.3333ZM30.5748 35C30.5748 33.6739 30.0434 32.4022 29.0976 31.4645C28.1517 30.5268 26.8689 30 25.5313 30H15.4444C14.1068 30 12.8239 30.5268 11.8781 31.4645C10.9323 32.4022 10.4009 33.6739 10.4009 35V40H30.5748V35ZM30.5748 13.3333C29.2448 13.3333 27.9446 12.9423 26.8388 12.2098C25.7329 11.4773 24.871 10.4361 24.362 9.21789C23.853 7.99972 23.7199 6.65928 23.9793 5.36607C24.2388 4.07286 24.8793 2.88497 25.8197 1.95262C26.7602 1.02027 27.9584 0.385336 29.2628 0.128101C30.5673 -0.129134 31.9194 0.00288854 33.1482 0.507473C34.3769 1.01206 35.4272 1.86654 36.1661 2.96287C36.905 4.0592 37.2994 5.34813 37.2994 6.66667C37.2994 8.43478 36.5909 10.1305 35.3298 11.3807C34.0687 12.631 32.3582 13.3333 30.5748 13.3333ZM10.4009 13.3333C9.07089 13.3333 7.77075 12.9423 6.6649 12.2098C5.55904 11.4773 4.69713 10.4361 4.18816 9.21789C3.67919 7.99972 3.54602 6.65928 3.80549 5.36607C4.06496 4.07286 4.70542 2.88497 5.64587 1.95262C6.58633 1.02027 7.78454 0.385336 9.08899 0.128101C10.3934 -0.129134 11.7455 0.00288854 12.9743 0.507473C14.2031 1.01206 15.2533 1.86654 15.9922 2.96287C16.7311 4.0592 17.1255 5.34813 17.1255 6.66667C17.1255 8.43478 16.417 10.1305 15.1559 11.3807C13.8948 12.631 12.1844 13.3333 10.4009 13.3333ZM10.4009 21.6667C10.4 19.204 11.3207 16.8285 12.9848 15H5.35743C4.01982 15 2.73699 15.5268 1.79116 16.4645C0.845328 17.4022 0.313965 18.6739 0.313965 20L0.313965 25H10.9876C10.6015 23.9302 10.4031 22.8028 10.4009 21.6667ZM29.988 25H40.6617V20C40.6617 18.6739 40.1303 17.4022 39.1845 16.4645C38.2387 15.5268 36.9558 15 35.6182 15H27.9908C29.2053 16.3317 30.0325 17.9651 30.3842 19.7262C30.736 21.4873 30.599 23.31 29.988 25Z" fill="white"/>
</g>
<defs>
<clipPath id="clip0_15_84">
<rect width="40.3477" height="40" fill="white" transform="translate(0.313965)"/>
</clipPath>
</defs>
</svg>
