<svg width="35" height="35" viewBox="0 0 35 35" fill="none" xmlns="http://www.w3.org/2000/svg">
<g clip-path="url(#clip0_32_4)">
<path d="M4.375 8.75C4.375 3.92438 8.29938 0 13.125 0C17.9506 0 21.875 3.92438 21.875 8.75C21.875 13.5756 17.9506 17.5 13.125 17.5C8.29938 17.5 4.375 13.5756 4.375 8.75ZM31.6808 27.0769L34.3656 28.6227L32.9102 31.15L30.2269 29.6042C29.1973 30.765 27.8265 31.6138 26.2515 31.9346V34.9985H23.3348V31.9346C21.7598 31.6138 20.3875 30.765 19.3594 29.6042L16.676 31.15L15.2206 28.6227L17.9054 27.0769C17.6648 26.3535 17.5029 25.5952 17.5029 24.7917C17.5029 23.9881 17.6648 23.2298 17.9054 22.5065L15.2206 20.9606L16.676 18.4333L19.3594 19.9792C20.389 18.8183 21.7598 17.9696 23.3348 17.6488V14.5848H26.2515V17.6488C27.8265 17.9696 29.1987 18.8183 30.2269 19.9792L32.9102 18.4333L34.3656 20.9606L31.6808 22.5065C31.9215 23.2298 32.0833 23.9881 32.0833 24.7917C32.0833 25.5952 31.9215 26.3535 31.6808 27.0769ZM26.9792 24.7917C26.9792 23.5856 25.9977 22.6042 24.7917 22.6042C23.5856 22.6042 22.6042 23.5856 22.6042 24.7917C22.6042 25.9977 23.5856 26.9792 24.7917 26.9792C25.9977 26.9792 26.9792 25.9977 26.9792 24.7917ZM11.6667 24.7917C11.6667 23.2546 11.9438 21.7875 12.4294 20.4167H7.29167C3.27104 20.4167 0 23.6877 0 27.7083V35H16.5506C13.5742 32.5938 11.6667 28.9173 11.6667 24.7917Z" fill="white"/>
</g>
<defs>
<clipPath id="clip0_32_4">
<rect width="35" height="35" fill="white"/>
</clipPath>
</defs>
</svg>
