<svg width="20" height="20" viewBox="0 0 20 20" fill="none" xmlns="http://www.w3.org/2000/svg">
<g clip-path="url(#clip0_303_401)">
<path d="M15.8332 20H4.16657C3.9249 20 3.69573 19.895 3.5374 19.7125C3.37907 19.53 3.30823 19.2875 3.3424 19.0484C3.80823 15.79 6.67073 13.3334 10.0007 13.3334C13.3307 13.3334 16.1932 15.79 16.6591 19.0484C16.6932 19.2875 16.6224 19.53 16.4641 19.7125C16.3057 19.895 16.0766 20 15.8349 20H15.8332ZM12.4999 2.50002L10.5857 0.266689C10.2774 -0.0924772 9.72157 -0.0924772 9.41407 0.266689L7.4999 2.50002L6.16407 0.284189C5.81573 -0.239144 4.9999 0.00835611 4.9999 0.636689V5.00002H14.9999V0.636689C14.9999 0.00835611 14.1849 -0.239144 13.8357 0.284189L12.4999 2.50002ZM4.9999 6.66669C4.9999 9.42419 7.2424 11.6667 9.9999 11.6667C12.7574 11.6667 14.9999 9.42419 14.9999 6.66669H4.9999Z" fill="#505765"/>
</g>
<defs>
<clipPath id="clip0_303_401">
<rect width="20" height="20" fill="white"/>
</clipPath>
</defs>
</svg>
