<svg width="35" height="35" viewBox="0 0 35 35" fill="none" xmlns="http://www.w3.org/2000/svg">
<g clip-path="url(#clip0_32_2)">
<path d="M17.5 24.7917C16.3463 24.7917 15.2185 24.4496 14.2592 23.8086C13.2999 23.1676 12.5522 22.2566 12.1107 21.1907C11.6692 20.1248 11.5537 18.9519 11.7788 17.8203C12.0038 16.6888 12.5594 15.6494 13.3752 14.8335C14.191 14.0177 15.2304 13.4622 16.362 13.2371C17.4935 13.012 18.6664 13.1275 19.7323 13.569C20.7982 14.0105 21.7093 14.7582 22.3502 15.7175C22.9912 16.6768 23.3333 17.8046 23.3333 18.9583C23.3333 20.5054 22.7188 21.9892 21.6248 23.0831C20.5308 24.1771 19.0471 24.7917 17.5 24.7917ZM26.25 30.625C26.25 29.4647 25.7891 28.3519 24.9686 27.5314C24.1481 26.7109 23.0353 26.25 21.875 26.25H13.125C11.9647 26.25 10.8519 26.7109 10.0314 27.5314C9.21094 28.3519 8.75 29.4647 8.75 30.625V35H26.25V30.625ZM26.25 11.6667C25.0963 11.6667 23.9685 11.3246 23.0092 10.6836C22.0499 10.0426 21.3022 9.13156 20.8607 8.06566C20.4192 6.99975 20.3037 5.82687 20.5288 4.69531C20.7538 3.56375 21.3094 2.52435 22.1252 1.70855C22.941 0.89274 23.9804 0.337169 25.112 0.112088C26.2435 -0.112992 27.4164 0.00252747 28.4823 0.444039C29.5482 0.88555 30.4593 1.63322 31.1002 2.59251C31.7412 3.5518 32.0833 4.67961 32.0833 5.83334C32.0833 7.38043 31.4688 8.86416 30.3748 9.95813C29.2808 11.0521 27.7971 11.6667 26.25 11.6667ZM8.75 11.6667C7.59628 11.6667 6.46846 11.3246 5.50917 10.6836C4.54989 10.0426 3.80221 9.13156 3.3607 8.06566C2.91919 6.99975 2.80367 5.82687 3.02875 4.69531C3.25383 3.56375 3.8094 2.52435 4.62521 1.70855C5.44102 0.89274 6.48042 0.337169 7.61197 0.112088C8.74353 -0.112992 9.91642 0.00252747 10.9823 0.444039C12.0482 0.88555 12.9593 1.63322 13.6002 2.59251C14.2412 3.5518 14.5833 4.67961 14.5833 5.83334C14.5833 7.38043 13.9688 8.86416 12.8748 9.95813C11.7808 11.0521 10.2971 11.6667 8.75 11.6667ZM8.75 18.9583C8.74924 16.8035 9.54792 14.7249 10.9915 13.125H4.375C3.21468 13.125 2.10188 13.5859 1.28141 14.4064C0.460936 15.2269 0 16.3397 0 17.5L0 21.875H9.25896C8.92405 20.939 8.75191 19.9525 8.75 18.9583ZM25.741 21.875H35V17.5C35 16.3397 34.5391 15.2269 33.7186 14.4064C32.8981 13.5859 31.7853 13.125 30.625 13.125H24.0085C25.0621 14.2902 25.7796 15.7195 26.0847 17.2604C26.3898 18.8014 26.2711 20.3963 25.741 21.875Z" fill="white"/>
</g>
<defs>
<clipPath id="clip0_32_2">
<rect width="35" height="35" fill="white"/>
</clipPath>
</defs>
</svg>
